NotoSerifHebrew-Condensed.ufo
<glyph name="etnahtaleft-hb" format="2">
  <unicode hex="0591"/>
  <note>
uni0591
</note>
  <anchor x="137" y="0" name="_bottomleft"/>
  <outline>
    <contour>
      <point x="120" y="-78" type="line"/>
      <point x="120" y="-118" type="line"/>
      <point x="97" y="-123"/>
      <point x="81" y="-136"/>
      <point x="73" y="-155" type="curve" smooth="yes"/>
      <point x="65" y="-173"/>
      <point x="62" y="-189"/>
      <point x="62" y="-212" type="curve" smooth="yes"/>
      <point x="62" y="-225"/>
      <point x="63" y="-237"/>
      <point x="65" y="-249" type="curve"/>
      <point x="100" y="-247" type="line"/>
      <point x="98" y="-233"/>
      <point x="98" y="-222"/>
      <point x="98" y="-212" type="curve" smooth="yes"/>
      <point x="98" y="-173"/>
      <point x="111" y="-154"/>
      <point x="137" y="-154" type="curve" smooth="yes"/>
      <point x="162" y="-154"/>
      <point x="178" y="-174"/>
      <point x="178" y="-213" type="curve" smooth="yes"/>
      <point x="178" y="-225"/>
      <point x="177" y="-235"/>
      <point x="175" y="-249" type="curve"/>
      <point x="211" y="-247" type="line"/>
      <point x="212" y="-234"/>
      <point x="213" y="-221"/>
      <point x="213" y="-207" type="curve" smooth="yes"/>
      <point x="213" y="-187"/>
      <point x="213" y="-173"/>
      <point x="203" y="-154" type="curve" smooth="yes"/>
      <point x="194" y="-137"/>
      <point x="179" y="-123"/>
      <point x="156" y="-118" type="curve"/>
      <point x="156" y="-75" type="line"/>
    </contour>
  </outline>
</glyph>
<glyph name="segolta-hb" format="2">
  <unicode hex="0592"/>
  <note>
uni0592
</note>
  <anchor x="206" y="536" name="_topleft"/>
  <outline>
    <contour>
      <point x="144" y="749" type="curve" smooth="yes"/>
      <point x="162" y="749"/>
      <point x="173" y="761"/>
      <point x="173" y="785" type="curve" smooth="yes"/>
      <point x="173" y="810"/>
      <point x="162" y="822"/>
      <point x="144" y="822" type="curve" smooth="yes"/>
      <point x="127" y="822"/>
      <point x="115" y="812"/>
      <point x="115" y="785" type="curve" smooth="yes"/>
      <point x="115" y="761"/>
      <point x="127" y="749"/>
    </contour>
    <contour>
      <point x="91" y="646" type="curve" smooth="yes"/>
      <point x="109" y="646"/>
      <point x="120" y="658"/>
      <point x="120" y="682" type="curve" smooth="yes"/>
      <point x="120" y="708"/>
      <point x="109" y="719"/>
      <point x="91" y="719" type="curve" smooth="yes"/>
      <point x="74" y="719"/>
      <point x="63" y="708"/>
      <point x="63" y="682" type="curve" smooth="yes"/>
      <point x="63" y="658"/>
      <point x="74" y="646"/>
    </contour>
    <contour>
      <point x="197" y="646" type="curve" smooth="yes"/>
      <point x="214" y="646"/>
      <point x="226" y="658"/>
      <point x="226" y="682" type="curve" smooth="yes"/>
      <point x="226" y="708"/>
      <point x="214" y="719"/>
      <point x="197" y="719" type="curve" smooth="yes"/>
      <point x="179" y="719"/>
      <point x="169" y="708"/>
      <point x="169" y="682" type="curve" smooth="yes"/>
      <point x="169" y="658"/>
      <point x="179" y="646"/>
    </contour>
  </outline>
</glyph>
<glyph name="shalshelet-hb" format="2">
  <unicode hex="0593"/>
  <note>
uni0593
</note>
  <anchor x="122" y="536" name="_top"/>
  <outline>
    <contour>
      <point x="60" y="642" type="line"/>
      <point x="110" y="642" type="line"/>
      <point x="184" y="682" type="line"/>
      <point x="118" y="723" type="line"/>
      <point x="184" y="763" type="line"/>
      <point x="118" y="804" type="line"/>
      <point x="184" y="845" type="line"/>
      <point x="126" y="845" type="line"/>
      <point x="60" y="804" type="line"/>
      <point x="126" y="763" type="line"/>
      <point x="60" y="723" type="line"/>
      <point x="126" y="682" type="line"/>
    </contour>
  </outline>
</glyph>
<glyph name="zaqefqatan-hb" format="2">
  <unicode hex="0594"/>
  <note>
uni0594
</note>
  <anchor x="84" y="536" name="_top"/>
  <outline>
    <contour>
      <point x="85" y="749" type="curve" smooth="yes"/>
      <point x="102" y="749"/>
      <point x="114" y="761"/>
      <point x="114" y="786" type="curve" smooth="yes"/>
      <point x="114" y="810"/>
      <point x="102" y="822"/>
      <point x="85" y="822" type="curve" smooth="yes"/>
      <point x="67" y="822"/>
      <point x="57" y="810"/>
      <point x="57" y="786" type="curve"/>
      <point x="57" y="761"/>
      <point x="67" y="749"/>
    </contour>
    <contour>
      <point x="84" y="646" type="curve" smooth="yes"/>
      <point x="102" y="646"/>
      <point x="113" y="658"/>
      <point x="113" y="683" type="curve" smooth="yes"/>
      <point x="113" y="708"/>
      <point x="102" y="719"/>
      <point x="84" y="719" type="curve" smooth="yes"/>
      <point x="67" y="719"/>
      <point x="55" y="708"/>
      <point x="55" y="683" type="curve"/>
      <point x="55" y="657"/>
      <point x="67" y="646"/>
    </contour>
  </outline>
</glyph>
<glyph name="zaqefgadol-hb" format="2">
  <unicode hex="0595"/>
  <note>
uni0595
</note>
  <anchor x="129" y="536" name="_top"/>
  <outline>
    <contour>
      <point x="61" y="646" type="line"/>
      <point x="102" y="649" type="line"/>
      <point x="102" y="822" type="line"/>
      <point x="61" y="820" type="line"/>
    </contour>
    <contour>
      <point x="168" y="646" type="curve" smooth="yes"/>
      <point x="185" y="646"/>
      <point x="197" y="658"/>
      <point x="197" y="683" type="curve" smooth="yes"/>
      <point x="197" y="708"/>
      <point x="185" y="719"/>
      <point x="168" y="719" type="curve" smooth="yes"/>
      <point x="150" y="719"/>
      <point x="138" y="708"/>
      <point x="138" y="683" type="curve" smooth="yes"/>
      <point x="138" y="657"/>
      <point x="150" y="646"/>
    </contour>
    <contour>
      <point x="169" y="749" type="curve" smooth="yes"/>
      <point x="186" y="749"/>
      <point x="198" y="761"/>
      <point x="198" y="786" type="curve" smooth="yes"/>
      <point x="198" y="810"/>
      <point x="186" y="822"/>
      <point x="169" y="822" type="curve" smooth="yes"/>
      <point x="151" y="822"/>
      <point x="141" y="810"/>
      <point x="141" y="786" type="curve" smooth="yes"/>
      <point x="141" y="761"/>
      <point x="151" y="749"/>
    </contour>
  </outline>
</glyph>
<glyph name="reviamugrash-hb" format="2">
  <unicode hex="0597"/>
  <note>
uni0597
</note>
  <anchor x="155" y="536" name="_topleft"/>
  <outline>
    <contour>
      <point x="120" y="640" type="line"/>
      <point x="180" y="714" type="line"/>
      <point x="120" y="790" type="line"/>
      <point x="60" y="714" type="line"/>
    </contour>
  </outline>
</glyph>
<glyph name="zarqa-hb" format="2">
  <unicode hex="0598"/>
  <note>
uni0598
</note>
  <anchor x="188" y="536" name="_top"/>
  <outline>
    <contour>
      <point x="112" y="642" type="curve"/>
      <point x="123" y="674" type="line"/>
      <point x="108" y="681"/>
      <point x="100" y="692"/>
      <point x="100" y="712" type="curve" smooth="yes"/>
      <point x="100" y="733"/>
      <point x="111" y="746"/>
      <point x="126" y="746" type="curve" smooth="yes"/>
      <point x="144" y="746"/>
      <point x="153" y="736"/>
      <point x="177" y="698" type="curve" smooth="yes"/>
      <point x="203" y="656"/>
      <point x="223" y="643"/>
      <point x="250" y="643" type="curve" smooth="yes"/>
      <point x="283" y="643"/>
      <point x="307" y="668"/>
      <point x="307" y="709" type="curve" smooth="yes"/>
      <point x="307" y="743"/>
      <point x="293" y="766"/>
      <point x="264" y="779" type="curve"/>
      <point x="253" y="746" type="line"/>
      <point x="268" y="739"/>
      <point x="276" y="727"/>
      <point x="276" y="709" type="curve" smooth="yes"/>
      <point x="276" y="686"/>
      <point x="265" y="674"/>
      <point x="250" y="674" type="curve" smooth="yes"/>
      <point x="233" y="674"/>
      <point x="221" y="687"/>
      <point x="199" y="721" type="curve" smooth="yes"/>
      <point x="171" y="765"/>
      <point x="153" y="778"/>
      <point x="128" y="778" type="curve" smooth="yes"/>
      <point x="93" y="778"/>
      <point x="69" y="751"/>
      <point x="69" y="712" type="curve" smooth="yes"/>
      <point x="69" y="676"/>
      <point x="83" y="652"/>
    </contour>
  </outline>
</glyph>
<glyph name="pashta-hb" format="2">
  <unicode hex="0599"/>
  <note>
uni0599
</note>
  <anchor x="200" y="536" name="_topleft"/>
  <outline>
    <contour>
      <point x="135" y="789" type="line"/>
      <point x="156" y="783"/>
      <point x="172" y="773"/>
      <point x="177" y="760" type="curve" smooth="yes"/>
      <point x="185" y="739"/>
      <point x="185" y="691"/>
      <point x="183" y="657" type="curve"/>
      <point x="220" y="660" type="line"/>
      <point x="224" y="718"/>
      <point x="224" y="760"/>
      <point x="208" y="785" type="curve" smooth="yes"/>
      <point x="194" y="807"/>
      <point x="170" y="825"/>
      <point x="138" y="833" type="curve"/>
    </contour>
  </outline>
</glyph>
<glyph name="yetiv-hb" format="2">
  <unicode hex="059A"/>
  <note>
uni059A
</note>
  <anchor x="166" y="0" name="_bottomleft"/>
  <outline>
    <contour>
      <point x="140" y="-236" type="line"/>
      <point x="173" y="-214" type="line"/>
      <point x="118" y="-153" type="line"/>
      <point x="173" y="-91" type="line"/>
      <point x="140" y="-70" type="line"/>
      <point x="66" y="-153" type="line"/>
    </contour>
  </outline>
</glyph>
<glyph name="tevirleft-hb" format="2">
  <unicode hex="059B"/>
  <note>
uni059B
</note>
  <anchor x="193" y="0" name="_bottomleft"/>
  <outline>
    <contour>
      <point x="98" y="-150" type="curve" smooth="yes"/>
      <point x="114" y="-150"/>
      <point x="126" y="-137"/>
      <point x="126" y="-119" type="curve" smooth="yes"/>
      <point x="126" y="-101"/>
      <point x="114" y="-87"/>
      <point x="98" y="-87" type="curve" smooth="yes"/>
      <point x="82" y="-87"/>
      <point x="70" y="-102"/>
      <point x="70" y="-119" type="curve" smooth="yes"/>
      <point x="70" y="-137"/>
      <point x="82" y="-150"/>
    </contour>
    <contour>
      <point x="115" y="-216" type="curve"/>
      <point x="113" y="-261" type="line"/>
      <point x="146" y="-252"/>
      <point x="172" y="-234"/>
      <point x="186" y="-213" type="curve" smooth="yes"/>
      <point x="202" y="-187"/>
      <point x="202" y="-145"/>
      <point x="198" y="-87" type="curve"/>
      <point x="161" y="-90" type="line"/>
      <point x="163" y="-124"/>
      <point x="165" y="-166"/>
      <point x="155" y="-187" type="curve" smooth="yes"/>
      <point x="149" y="-200"/>
      <point x="137" y="-210"/>
    </contour>
  </outline>
</glyph>
<glyph name="gereshaccent-hb" format="2">
  <unicode hex="059C"/>
  <note>
uni059C
</note>
  <anchor x="75" y="536" name="_topleft"/>
  <outline>
    <contour>
      <point x="150" y="789" type="curve"/>
      <point x="147" y="833" type="line"/>
      <point x="115" y="825"/>
      <point x="91" y="807"/>
      <point x="77" y="785" type="curve" smooth="yes"/>
      <point x="61" y="760"/>
      <point x="61" y="718"/>
      <point x="65" y="660" type="curve"/>
      <point x="102" y="657" type="line"/>
      <point x="100" y="691"/>
      <point x="99" y="739"/>
      <point x="108" y="760" type="curve" smooth="yes"/>
      <point x="115" y="772"/>
      <point x="129" y="783"/>
    </contour>
  </outline>
</glyph>
<glyph name="gershayimaccent-hb" format="2">
  <unicode hex="059E"/>
  <note>
uni059E
</note>
  <anchor x="151" y="536" name="_top"/>
  <outline>
    <contour>
      <point x="166" y="789" type="curve"/>
      <point x="163" y="833" type="line"/>
      <point x="130" y="825"/>
      <point x="107" y="807"/>
      <point x="93" y="785" type="curve" smooth="yes"/>
      <point x="77" y="760"/>
      <point x="77" y="718"/>
      <point x="81" y="660" type="curve"/>
      <point x="118" y="657" type="line"/>
      <point x="116" y="691"/>
      <point x="114" y="739"/>
      <point x="124" y="760" type="curve" smooth="yes"/>
      <point x="130" y="772"/>
      <point x="145" y="783"/>
    </contour>
    <contour>
      <point x="267" y="789" type="curve"/>
      <point x="264" y="833" type="line"/>
      <point x="231" y="825"/>
      <point x="207" y="807"/>
      <point x="194" y="785" type="curve" smooth="yes"/>
      <point x="177" y="760"/>
      <point x="177" y="718"/>
      <point x="181" y="660" type="curve"/>
      <point x="219" y="657" type="line"/>
      <point x="216" y="691"/>
      <point x="215" y="739"/>
      <point x="225" y="760" type="curve" smooth="yes"/>
      <point x="231" y="772"/>
      <point x="245" y="783"/>
    </contour>
  </outline>
</glyph>
<glyph name="qarneypara-hb" format="2">
  <unicode hex="059F"/>
  <note>
uni059F
</note>
  <anchor x="277" y="536" name="_top"/>
  <outline>
    <contour>
      <point x="314" y="660" type="line"/>
      <point x="343" y="692" type="line"/>
      <point x="354" y="686"/>
      <point x="366" y="684"/>
      <point x="379" y="684" type="curve" smooth="yes"/>
      <point x="419" y="684"/>
      <point x="450" y="719"/>
      <point x="450" y="763" type="curve" smooth="yes"/>
      <point x="450" y="809"/>
      <point x="418" y="843"/>
      <point x="379" y="843" type="curve" smooth="yes"/>
      <point x="339" y="843"/>
      <point x="307" y="808"/>
      <point x="307" y="763" type="curve" smooth="yes"/>
      <point x="307" y="749"/>
      <point x="311" y="735"/>
      <point x="317" y="724" type="curve"/>
      <point x="287" y="691" type="line"/>
    </contour>
    <contour>
      <point x="240" y="660" type="line"/>
      <point x="267" y="691" type="line"/>
      <point x="237" y="724" type="line"/>
      <point x="243" y="735"/>
      <point x="247" y="749"/>
      <point x="247" y="763" type="curve" smooth="yes"/>
      <point x="247" y="808"/>
      <point x="215" y="843"/>
      <point x="175" y="843" type="curve" smooth="yes"/>
      <point x="136" y="843"/>
      <point x="104" y="808"/>
      <point x="104" y="763" type="curve" smooth="yes"/>
      <point x="104" y="719"/>
      <point x="135" y="684"/>
      <point x="175" y="684" type="curve" smooth="yes"/>
      <point x="188" y="684"/>
      <point x="200" y="686"/>
      <point x="211" y="692" type="curve"/>
    </contour>
    <contour>
      <point x="176" y="723" type="curve" smooth="yes"/>
      <point x="156" y="723"/>
      <point x="140" y="742"/>
      <point x="140" y="763" type="curve" smooth="yes"/>
      <point x="140" y="785"/>
      <point x="157" y="804"/>
      <point x="176" y="804" type="curve" smooth="yes"/>
      <point x="195" y="804"/>
      <point x="211" y="786"/>
      <point x="211" y="763" type="curve" smooth="yes"/>
      <point x="211" y="741"/>
      <point x="195" y="723"/>
    </contour>
    <contour>
      <point x="378" y="723" type="curve" smooth="yes"/>
      <point x="359" y="723"/>
      <point x="343" y="741"/>
      <point x="343" y="763" type="curve" smooth="yes"/>
      <point x="343" y="786"/>
      <point x="359" y="804"/>
      <point x="378" y="804" type="curve" smooth="yes"/>
      <point x="397" y="804"/>
      <point x="414" y="785"/>
      <point x="414" y="763" type="curve" smooth="yes"/>
      <point x="414" y="742"/>
      <point x="398" y="723"/>
    </contour>
  </outline>
</glyph>
<glyph name="telishagedola-hb" format="2">
  <unicode hex="05A0"/>
  <note>
uni05A0
</note>
  <anchor x="157" y="536" name="_top"/>
  <outline>
    <contour>
      <point x="103" y="660" type="line"/>
      <point x="132" y="692" type="line"/>
      <point x="142" y="686"/>
      <point x="154" y="684"/>
      <point x="167" y="684" type="curve" smooth="yes"/>
      <point x="207" y="684"/>
      <point x="239" y="719"/>
      <point x="239" y="763" type="curve" smooth="yes"/>
      <point x="239" y="809"/>
      <point x="207" y="843"/>
      <point x="167" y="843" type="curve" smooth="yes"/>
      <point x="127" y="843"/>
      <point x="95" y="808"/>
      <point x="95" y="763" type="curve" smooth="yes"/>
      <point x="95" y="749"/>
      <point x="99" y="735"/>
      <point x="105" y="724" type="curve"/>
      <point x="75" y="691" type="line"/>
    </contour>
    <contour>
      <point x="166" y="723" type="curve" smooth="yes"/>
      <point x="147" y="723"/>
      <point x="131" y="741"/>
      <point x="131" y="763" type="curve" smooth="yes"/>
      <point x="131" y="786"/>
      <point x="148" y="804"/>
      <point x="166" y="804" type="curve" smooth="yes"/>
      <point x="185" y="804"/>
      <point x="203" y="785"/>
      <point x="203" y="763" type="curve" smooth="yes"/>
      <point x="203" y="742"/>
      <point x="186" y="723"/>
    </contour>
  </outline>
</glyph>
<glyph name="pazer-hb" format="2">
  <unicode hex="05A1"/>
  <note>
uni05A1
</note>
  <anchor x="126" y="536" name="_top"/>
  <outline>
    <contour>
      <point x="60" y="657" type="line"/>
      <point x="100" y="660" type="line"/>
      <point x="100" y="705" type="line"/>
      <point x="106" y="701"/>
      <point x="114" y="700"/>
      <point x="122" y="700" type="curve" smooth="yes"/>
      <point x="169" y="700"/>
      <point x="192" y="733"/>
      <point x="192" y="785" type="curve" smooth="yes"/>
      <point x="192" y="807" type="line"/>
      <point x="151" y="805" type="line"/>
      <point x="151" y="785" type="line" smooth="yes"/>
      <point x="151" y="752"/>
      <point x="142" y="741"/>
      <point x="118" y="741" type="curve" smooth="yes"/>
      <point x="108" y="741"/>
      <point x="104" y="742"/>
      <point x="100" y="747" type="curve"/>
      <point x="100" y="807" type="line"/>
      <point x="60" y="805" type="line"/>
    </contour>
  </outline>
</glyph>
<glyph name="atnahhafukh-hb" format="2">
  <unicode hex="05A2"/>
  <note>
uni05A2
</note>
  <anchor x="138" y="0" name="_bottomleft"/>
  <outline>
    <contour>
      <point x="155" y="-257" type="line"/>
      <point x="155" y="-217" type="line"/>
      <point x="178" y="-211"/>
      <point x="194" y="-199"/>
      <point x="202" y="-179" type="curve" smooth="yes"/>
      <point x="210" y="-161"/>
      <point x="213" y="-146"/>
      <point x="213" y="-123" type="curve" smooth="yes"/>
      <point x="213" y="-109"/>
      <point x="212" y="-97"/>
      <point x="210" y="-85" type="curve"/>
      <point x="175" y="-88" type="line"/>
      <point x="177" y="-101"/>
      <point x="177" y="-112"/>
      <point x="177" y="-123" type="curve" smooth="yes"/>
      <point x="177" y="-161"/>
      <point x="164" y="-180"/>
      <point x="138" y="-180" type="curve" smooth="yes"/>
      <point x="113" y="-180"/>
      <point x="97" y="-160"/>
      <point x="97" y="-121" type="curve" smooth="yes"/>
      <point x="97" y="-109"/>
      <point x="98" y="-100"/>
      <point x="100" y="-85" type="curve"/>
      <point x="64" y="-88" type="line"/>
      <point x="63" y="-100"/>
      <point x="62" y="-113"/>
      <point x="62" y="-127" type="curve" smooth="yes"/>
      <point x="62" y="-147"/>
      <point x="64" y="-161"/>
      <point x="72" y="-180" type="curve" smooth="yes"/>
      <point x="81" y="-198"/>
      <point x="96" y="-211"/>
      <point x="119" y="-217" type="curve"/>
      <point x="119" y="-259" type="line"/>
    </contour>
  </outline>
</glyph>
<glyph name="munahleft-hb" format="2">
  <unicode hex="05A3"/>
  <note>
uni05A3
</note>
  <anchor x="160" y="0" name="_bottomleft"/>
  <outline>
    <contour>
      <point x="65" y="-207" type="line"/>
      <point x="182" y="-207" type="line"/>
      <point x="182" y="-81" type="line"/>
      <point x="144" y="-84" type="line"/>
      <point x="144" y="-165" type="line"/>
      <point x="67" y="-165" type="line"/>
    </contour>
  </outline>
</glyph>
<glyph name="mahapakhleft-hb" format="2">
  <unicode hex="05A4"/>
  <note>
uni05A4
</note>
  <anchor x="167" y="0" name="_bottomleft"/>
  <outline>
    <contour>
      <point x="140" y="-236" type="line"/>
      <point x="173" y="-214" type="line"/>
      <point x="118" y="-153" type="line"/>
      <point x="173" y="-91" type="line"/>
      <point x="140" y="-70" type="line"/>
      <point x="66" y="-153" type="line"/>
    </contour>
  </outline>
</glyph>
<glyph name="merkhaleft-hb" format="2">
  <unicode hex="05A5"/>
  <note>
uni05A5
</note>
  <anchor x="188" y="0" name="_bottomleft"/>
  <outline>
    <contour>
      <point x="109" y="-216" type="curve"/>
      <point x="107" y="-260" type="line"/>
      <point x="141" y="-252"/>
      <point x="167" y="-234"/>
      <point x="181" y="-212" type="curve" smooth="yes"/>
      <point x="197" y="-187"/>
      <point x="197" y="-142"/>
      <point x="193" y="-84" type="curve"/>
      <point x="156" y="-87" type="line"/>
      <point x="158" y="-121"/>
      <point x="159" y="-166"/>
      <point x="149" y="-187" type="curve" smooth="yes"/>
      <point x="143" y="-199"/>
      <point x="129" y="-210"/>
    </contour>
  </outline>
</glyph>
<glyph name="merkhakefulaleft-hb" format="2">
  <unicode hex="05A6"/>
  <note>
uni05A6
</note>
  <anchor x="251" y="0" name="_bottomleft"/>
  <outline>
    <contour>
      <point x="240" y="-212" type="curve"/>
      <point x="242" y="-257" type="line"/>
      <point x="276" y="-248"/>
      <point x="298" y="-230"/>
      <point x="311" y="-209" type="curve" smooth="yes"/>
      <point x="328" y="-183"/>
      <point x="328" y="-139"/>
      <point x="324" y="-80" type="curve"/>
      <point x="286" y="-83" type="line"/>
      <point x="289" y="-115"/>
      <point x="290" y="-163"/>
      <point x="280" y="-183" type="curve" smooth="yes"/>
      <point x="274" y="-196"/>
      <point x="260" y="-206"/>
    </contour>
    <contour>
      <point x="139" y="-212" type="curve"/>
      <point x="141" y="-257" type="line"/>
      <point x="176" y="-248"/>
      <point x="197" y="-230"/>
      <point x="211" y="-209" type="curve" smooth="yes"/>
      <point x="227" y="-183"/>
      <point x="227" y="-139"/>
      <point x="223" y="-80" type="curve"/>
      <point x="186" y="-83" type="line"/>
      <point x="188" y="-115"/>
      <point x="189" y="-163"/>
      <point x="179" y="-183" type="curve" smooth="yes"/>
      <point x="173" y="-196"/>
      <point x="159" y="-206"/>
    </contour>
  </outline>
</glyph>
<glyph name="dargaleft-hb" format="2">
  <unicode hex="05A7"/>
  <note>
uni05A7
</note>
  <anchor x="118" y="0" name="_bottomleft"/>
  <outline>
    <contour>
      <point x="78" y="-215" type="line"/>
      <point x="178" y="-194" type="line"/>
      <point x="118" y="-106" type="line"/>
      <point x="168" y="-96" type="line"/>
      <point x="168" y="-66" type="line"/>
      <point x="67" y="-87" type="line"/>
      <point x="127" y="-175" type="line"/>
      <point x="78" y="-183" type="line"/>
    </contour>
  </outline>
</glyph>
<glyph name="qadma-hb" format="2">
  <unicode hex="05A8"/>
  <note>
uni05A8
</note>
  <anchor x="175" y="536" name="_topleft"/>
  <outline>
    <contour>
      <point x="102" y="789" type="line"/>
      <point x="123" y="783"/>
      <point x="137" y="772"/>
      <point x="144" y="760" type="curve" smooth="yes"/>
      <point x="153" y="739"/>
      <point x="152" y="691"/>
      <point x="150" y="657" type="curve"/>
      <point x="187" y="660" type="line"/>
      <point x="191" y="718"/>
      <point x="191" y="760"/>
      <point x="175" y="785" type="curve" smooth="yes"/>
      <point x="161" y="807"/>
      <point x="137" y="825"/>
      <point x="105" y="833" type="curve"/>
    </contour>
  </outline>
</glyph>
<glyph name="telishaqetana-hb" format="2">
  <unicode hex="05A9"/>
  <note>
uni05A9
</note>
  <anchor x="144" y="536" name="_topleft"/>
  <outline>
    <contour>
      <point x="211" y="660" type="line"/>
      <point x="239" y="691" type="line"/>
      <point x="209" y="724" type="line"/>
      <point x="215" y="735"/>
      <point x="219" y="749"/>
      <point x="219" y="763" type="curve" smooth="yes"/>
      <point x="219" y="808"/>
      <point x="187" y="843"/>
      <point x="147" y="843" type="curve" smooth="yes"/>
      <point x="107" y="843"/>
      <point x="75" y="808"/>
      <point x="75" y="763" type="curve" smooth="yes"/>
      <point x="75" y="719"/>
      <point x="107" y="684"/>
      <point x="147" y="684" type="curve" smooth="yes"/>
      <point x="160" y="684"/>
      <point x="172" y="686"/>
      <point x="182" y="692" type="curve"/>
    </contour>
    <contour>
      <point x="148" y="723" type="curve" smooth="yes"/>
      <point x="128" y="723"/>
      <point x="111" y="742"/>
      <point x="111" y="763" type="curve" smooth="yes"/>
      <point x="111" y="785"/>
      <point x="129" y="804"/>
      <point x="148" y="804" type="curve" smooth="yes"/>
      <point x="166" y="804"/>
      <point x="183" y="786"/>
      <point x="183" y="763" type="curve" smooth="yes"/>
      <point x="183" y="741"/>
      <point x="167" y="723"/>
    </contour>
  </outline>
</glyph>
<glyph name="ole-hb" format="2">
  <unicode hex="05AB"/>
  <note>
uni05AB
</note>
  <anchor x="125" y="536" name="_top"/>
  <outline>
    <contour>
      <point x="140" y="648" type="line"/>
      <point x="173" y="669" type="line"/>
      <point x="118" y="731" type="line"/>
      <point x="173" y="792" type="line"/>
      <point x="140" y="814" type="line"/>
      <point x="66" y="731" type="line"/>
    </contour>
  </outline>
</glyph>
<glyph name="iluy-hb" format="2">
  <unicode hex="05AC"/>
  <note>
uni05AC
</note>
  <anchor x="125" y="536" name="_top"/>
  <outline>
    <contour>
      <point x="65" y="660" type="line"/>
      <point x="182" y="660" type="line"/>
      <point x="182" y="786" type="line"/>
      <point x="144" y="783" type="line"/>
      <point x="144" y="702" type="line"/>
      <point x="67" y="702" type="line"/>
    </contour>
  </outline>
</glyph>
<glyph name="dehi-hb" format="2">
  <unicode hex="05AD"/>
  <note>
uni05AD
</note>
  <anchor x="75" y="0" name="_bottomleft"/>
  <outline>
    <contour>
      <point x="148" y="-216" type="line"/>
      <point x="127" y="-210"/>
      <point x="113" y="-199"/>
      <point x="106" y="-187" type="curve" smooth="yes"/>
      <point x="97" y="-166"/>
      <point x="98" y="-118"/>
      <point x="100" y="-84" type="curve"/>
      <point x="63" y="-87" type="line"/>
      <point x="59" y="-145"/>
      <point x="59" y="-187"/>
      <point x="75" y="-212" type="curve" smooth="yes"/>
      <point x="89" y="-234"/>
      <point x="113" y="-252"/>
      <point x="145" y="-260" type="curve"/>
    </contour>
  </outline>
</glyph>
<glyph name="zinor-hb" format="2">
  <unicode hex="05AE"/>
  <note>
uni05AE
</note>
  <anchor x="188" y="536" name="_top"/>
  <outline>
    <contour>
      <point x="112" y="660" type="curve"/>
      <point x="123" y="692" type="line"/>
      <point x="108" y="699"/>
      <point x="100" y="711"/>
      <point x="100" y="730" type="curve" smooth="yes"/>
      <point x="100" y="751"/>
      <point x="111" y="764"/>
      <point x="126" y="764" type="curve" smooth="yes"/>
      <point x="144" y="764"/>
      <point x="153" y="755"/>
      <point x="177" y="717" type="curve" smooth="yes"/>
      <point x="203" y="675"/>
      <point x="223" y="661"/>
      <point x="250" y="661" type="curve" smooth="yes"/>
      <point x="283" y="661"/>
      <point x="307" y="687"/>
      <point x="307" y="727" type="curve" smooth="yes"/>
      <point x="307" y="762"/>
      <point x="293" y="785"/>
      <point x="264" y="797" type="curve"/>
      <point x="253" y="764" type="line"/>
      <point x="268" y="757"/>
      <point x="276" y="746"/>
      <point x="276" y="727" type="curve" smooth="yes"/>
      <point x="276" y="704"/>
      <point x="265" y="692"/>
      <point x="250" y="692" type="curve" smooth="yes"/>
      <point x="233" y="692"/>
      <point x="221" y="705"/>
      <point x="199" y="739" type="curve" smooth="yes"/>
      <point x="172" y="784"/>
      <point x="153" y="796"/>
      <point x="128" y="796" type="curve" smooth="yes"/>
      <point x="93" y="796"/>
      <point x="69" y="769"/>
      <point x="69" y="730" type="curve" smooth="yes"/>
      <point x="69" y="695"/>
      <point x="83" y="670"/>
    </contour>
  </outline>
</glyph>
<glyph name="masoracircle-hb" format="2">
  <unicode hex="05AF"/>
  <note>
uni05AF
</note>
  <anchor x="142" y="536" name="_top"/>
  <outline>
    <contour>
      <point x="142" y="660" type="curve" smooth="yes"/>
      <point x="182" y="660"/>
      <point x="212" y="695"/>
      <point x="212" y="739" type="curve" smooth="yes"/>
      <point x="212" y="782"/>
      <point x="181" y="817"/>
      <point x="142" y="817" type="curve" smooth="yes"/>
      <point x="103" y="817"/>
      <point x="72" y="782"/>
      <point x="72" y="739" type="curve" smooth="yes"/>
      <point x="72" y="695"/>
      <point x="102" y="660"/>
    </contour>
    <contour>
      <point x="142" y="697" type="curve" smooth="yes"/>
      <point x="121" y="697"/>
      <point x="105" y="716"/>
      <point x="105" y="739" type="curve" smooth="yes"/>
      <point x="105" y="762"/>
      <point x="122" y="781"/>
      <point x="142" y="781" type="curve" smooth="yes"/>
      <point x="162" y="781"/>
      <point x="179" y="762"/>
      <point x="179" y="739" type="curve" smooth="yes"/>
      <point x="179" y="716"/>
      <point x="163" y="697"/>
    </contour>
  </outline>
</glyph>
<glyph name="sheva-hb" format="2">
  <unicode hex="05B0"/>
  <note>
sheva
</note>
  <anchor x="86" y="0" name="_bottom"/>
  <outline>
    <contour>
      <point x="57" y="-106" type="curve"/>
      <point x="57" y="-132"/>
      <point x="67" y="-143"/>
      <point x="85" y="-143" type="curve" smooth="yes"/>
      <point x="102" y="-143"/>
      <point x="114" y="-131"/>
      <point x="114" y="-106" type="curve" smooth="yes"/>
      <point x="114" y="-82"/>
      <point x="102" y="-70"/>
      <point x="85" y="-70" type="curve" smooth="yes"/>
      <point x="67" y="-70"/>
      <point x="57" y="-82"/>
    </contour>
    <contour>
      <point x="55" y="-209" type="curve"/>
      <point x="55" y="-235"/>
      <point x="67" y="-246"/>
      <point x="84" y="-246" type="curve" smooth="yes"/>
      <point x="102" y="-246"/>
      <point x="113" y="-234"/>
      <point x="113" y="-209" type="curve" smooth="yes"/>
      <point x="113" y="-185"/>
      <point x="102" y="-173"/>
      <point x="84" y="-173" type="curve" smooth="yes"/>
      <point x="67" y="-173"/>
      <point x="55" y="-185"/>
    </contour>
  </outline>
</glyph>
<glyph name="hatafsegol-hb" format="2">
  <unicode hex="05B1"/>
  <note>
hatafsegol
</note>
  <anchor x="193" y="0" name="_bottom"/>
  <outline>
    <contour>
      <point x="288" y="-246" type="curve" smooth="yes"/>
      <point x="305" y="-246"/>
      <point x="318" y="-234"/>
      <point x="318" y="-209" type="curve" smooth="yes"/>
      <point x="318" y="-185"/>
      <point x="305" y="-173"/>
      <point x="288" y="-173" type="curve" smooth="yes"/>
      <point x="271" y="-173"/>
      <point x="259" y="-185"/>
      <point x="259" y="-209" type="curve"/>
      <point x="259" y="-235"/>
      <point x="271" y="-246"/>
    </contour>
    <contour>
      <point x="151" y="-246" type="curve" smooth="yes"/>
      <point x="168" y="-246"/>
      <point x="180" y="-234"/>
      <point x="180" y="-209" type="curve" smooth="yes"/>
      <point x="180" y="-185"/>
      <point x="168" y="-173"/>
      <point x="151" y="-173" type="curve" smooth="yes"/>
      <point x="134" y="-173"/>
      <point x="121" y="-185"/>
      <point x="121" y="-209" type="curve"/>
      <point x="121" y="-235"/>
      <point x="134" y="-246"/>
    </contour>
    <contour>
      <point x="98" y="-143" type="curve" smooth="yes"/>
      <point x="115" y="-143"/>
      <point x="127" y="-131"/>
      <point x="127" y="-106" type="curve" smooth="yes"/>
      <point x="127" y="-82"/>
      <point x="115" y="-70"/>
      <point x="98" y="-70" type="curve" smooth="yes"/>
      <point x="81" y="-70"/>
      <point x="69" y="-82"/>
      <point x="69" y="-106" type="curve"/>
      <point x="69" y="-132"/>
      <point x="81" y="-143"/>
    </contour>
    <contour>
      <point x="203" y="-143" type="curve" smooth="yes"/>
      <point x="221" y="-143"/>
      <point x="233" y="-131"/>
      <point x="233" y="-106" type="curve" smooth="yes"/>
      <point x="233" y="-82"/>
      <point x="221" y="-70"/>
      <point x="203" y="-70" type="curve" smooth="yes"/>
      <point x="186" y="-70"/>
      <point x="175" y="-82"/>
      <point x="175" y="-106" type="curve"/>
      <point x="175" y="-132"/>
      <point x="186" y="-143"/>
    </contour>
    <contour>
      <point x="287" y="-143" type="curve" smooth="yes"/>
      <point x="305" y="-143"/>
      <point x="317" y="-131"/>
      <point x="317" y="-106" type="curve" smooth="yes"/>
      <point x="317" y="-82"/>
      <point x="305" y="-70"/>
      <point x="287" y="-70" type="curve" smooth="yes"/>
      <point x="270" y="-70"/>
      <point x="259" y="-82"/>
      <point x="259" y="-106" type="curve"/>
      <point x="259" y="-132"/>
      <point x="270" y="-143"/>
    </contour>
  </outline>
</glyph>
<glyph name="hatafqamats-hb" format="2">
  <unicode hex="05B3"/>
  <note>
hatafqamats
</note>
  <anchor x="189" y="0" name="_bottom"/>
  <outline>
    <contour>
      <point x="126" y="-232" type="line"/>
      <point x="167" y="-230" type="line"/>
      <point x="162" y="-129" type="line"/>
      <point x="205" y="-129" type="line"/>
      <point x="207" y="-84" type="line"/>
      <point x="87" y="-84" type="line"/>
      <point x="84" y="-129" type="line"/>
      <point x="130" y="-129" type="line"/>
    </contour>
    <contour>
      <point x="264" y="-246" type="curve" smooth="yes"/>
      <point x="281" y="-246"/>
      <point x="293" y="-234"/>
      <point x="293" y="-209" type="curve" smooth="yes"/>
      <point x="293" y="-185"/>
      <point x="281" y="-173"/>
      <point x="264" y="-173" type="curve" smooth="yes"/>
      <point x="246" y="-173"/>
      <point x="234" y="-185"/>
      <point x="234" y="-209" type="curve" smooth="yes"/>
      <point x="234" y="-235"/>
      <point x="246" y="-246"/>
    </contour>
    <contour>
      <point x="265" y="-143" type="curve" smooth="yes"/>
      <point x="281" y="-143"/>
      <point x="294" y="-131"/>
      <point x="294" y="-106" type="curve" smooth="yes"/>
      <point x="294" y="-82"/>
      <point x="281" y="-70"/>
      <point x="265" y="-70" type="curve" smooth="yes"/>
      <point x="247" y="-70"/>
      <point x="236" y="-82"/>
      <point x="236" y="-106" type="curve" smooth="yes"/>
      <point x="236" y="-132"/>
      <point x="247" y="-143"/>
    </contour>
  </outline>
</glyph>
<glyph name="hiriq-hb" format="2">
  <unicode hex="05B4"/>
  <note>
hiriq
</note>
  <anchor x="84" y="0" name="_bottom"/>
  <outline>
    <contour>
      <point x="83" y="-143" type="curve" smooth="yes"/>
      <point x="101" y="-143"/>
      <point x="112" y="-131"/>
      <point x="112" y="-106" type="curve" smooth="yes"/>
      <point x="112" y="-82"/>
      <point x="101" y="-70"/>
      <point x="83" y="-70" type="curve" smooth="yes"/>
      <point x="66" y="-70"/>
      <point x="55" y="-82"/>
      <point x="55" y="-106" type="curve"/>
      <point x="55" y="-132"/>
      <point x="66" y="-143"/>
    </contour>
  </outline>
</glyph>
<glyph name="tsere-hb" format="2">
  <unicode hex="05B5"/>
  <note>
tsere
</note>
  <anchor x="145" y="0" name="_bottom"/>
  <outline>
    <contour>
      <point x="191" y="-143" type="curve" smooth="yes"/>
      <point x="208" y="-143"/>
      <point x="220" y="-131"/>
      <point x="220" y="-106" type="curve" smooth="yes"/>
      <point x="220" y="-82"/>
      <point x="208" y="-70"/>
      <point x="191" y="-70" type="curve" smooth="yes"/>
      <point x="173" y="-70"/>
      <point x="162" y="-82"/>
      <point x="162" y="-106" type="curve"/>
      <point x="162" y="-132"/>
      <point x="173" y="-143"/>
    </contour>
    <contour>
      <point x="98" y="-143" type="curve" smooth="yes"/>
      <point x="115" y="-143"/>
      <point x="127" y="-131"/>
      <point x="127" y="-106" type="curve" smooth="yes"/>
      <point x="127" y="-82"/>
      <point x="115" y="-70"/>
      <point x="98" y="-70" type="curve" smooth="yes"/>
      <point x="80" y="-70"/>
      <point x="69" y="-82"/>
      <point x="69" y="-106" type="curve"/>
      <point x="69" y="-132"/>
      <point x="80" y="-143"/>
    </contour>
  </outline>
</glyph>
<glyph name="segol-hb" format="2">
  <unicode hex="05B6"/>
  <note>
segol
</note>
  <anchor x="145" y="0" name="_bottom"/>
  <outline>
    <contour>
      <point x="197" y="-143" type="curve" smooth="yes"/>
      <point x="214" y="-143"/>
      <point x="226" y="-131"/>
      <point x="226" y="-106" type="curve" smooth="yes"/>
      <point x="226" y="-82"/>
      <point x="214" y="-70"/>
      <point x="197" y="-70" type="curve" smooth="yes"/>
      <point x="179" y="-70"/>
      <point x="169" y="-82"/>
      <point x="169" y="-106" type="curve"/>
      <point x="169" y="-132"/>
      <point x="179" y="-143"/>
    </contour>
    <contour>
      <point x="144" y="-246" type="curve" smooth="yes"/>
      <point x="162" y="-246"/>
      <point x="173" y="-234"/>
      <point x="173" y="-209" type="curve" smooth="yes"/>
      <point x="173" y="-185"/>
      <point x="162" y="-173"/>
      <point x="144" y="-173" type="curve" smooth="yes"/>
      <point x="127" y="-173"/>
      <point x="115" y="-185"/>
      <point x="115" y="-209" type="curve"/>
      <point x="115" y="-235"/>
      <point x="127" y="-246"/>
    </contour>
    <contour>
      <point x="91" y="-143" type="curve" smooth="yes"/>
      <point x="109" y="-143"/>
      <point x="120" y="-131"/>
      <point x="120" y="-106" type="curve" smooth="yes"/>
      <point x="120" y="-82"/>
      <point x="109" y="-70"/>
      <point x="91" y="-70" type="curve" smooth="yes"/>
      <point x="74" y="-70"/>
      <point x="63" y="-82"/>
      <point x="63" y="-106" type="curve"/>
      <point x="63" y="-132"/>
      <point x="74" y="-143"/>
    </contour>
  </outline>
</glyph>
<glyph name="qamats-hb" format="2">
  <unicode hex="05B8"/>
  <note>
qamats
</note>
  <anchor x="139" y="0" name="_bottom"/>
  <outline>
    <contour>
      <point x="118" y="-210" type="line"/>
      <point x="160" y="-210" type="line"/>
      <point x="155" y="-129" type="line"/>
      <point x="199" y="-129" type="line"/>
      <point x="201" y="-84" type="line"/>
      <point x="79" y="-84" type="line"/>
      <point x="77" y="-129" type="line"/>
      <point x="124" y="-129" type="line"/>
    </contour>
  </outline>
</glyph>
<glyph name="qubuts-hb" format="2">
  <unicode hex="05BB"/>
  <note>
qubuts
</note>
  <anchor x="165" y="0" name="_bottom"/>
  <outline>
    <contour>
      <point x="234" y="-246" type="curve" smooth="yes"/>
      <point x="251" y="-246"/>
      <point x="263" y="-234"/>
      <point x="263" y="-209" type="curve" smooth="yes"/>
      <point x="263" y="-185"/>
      <point x="251" y="-173"/>
      <point x="234" y="-173" type="curve" smooth="yes"/>
      <point x="217" y="-173"/>
      <point x="205" y="-185"/>
      <point x="205" y="-209" type="curve"/>
      <point x="205" y="-235"/>
      <point x="217" y="-246"/>
    </contour>
    <contour>
      <point x="94" y="-143" type="curve" smooth="yes"/>
      <point x="111" y="-143"/>
      <point x="124" y="-131"/>
      <point x="124" y="-106" type="curve" smooth="yes"/>
      <point x="124" y="-82"/>
      <point x="111" y="-70"/>
      <point x="94" y="-70" type="curve" smooth="yes"/>
      <point x="77" y="-70"/>
      <point x="66" y="-82"/>
      <point x="66" y="-106" type="curve"/>
      <point x="66" y="-132"/>
      <point x="77" y="-143"/>
    </contour>
    <contour>
      <point x="164" y="-195" type="curve" smooth="yes"/>
      <point x="182" y="-195"/>
      <point x="193" y="-183"/>
      <point x="193" y="-158" type="curve" smooth="yes"/>
      <point x="193" y="-134"/>
      <point x="182" y="-122"/>
      <point x="164" y="-122" type="curve" smooth="yes"/>
      <point x="147" y="-122"/>
      <point x="135" y="-134"/>
      <point x="135" y="-158" type="curve"/>
      <point x="135" y="-184"/>
      <point x="147" y="-195"/>
    </contour>
  </outline>
</glyph>
<glyph name="dagesh-hb" format="2">
  <unicode hex="05BC"/>
  <note>
dagesh
</note>
  <anchor x="84" y="300" name="_center"/>
  <outline>
    <contour>
      <point x="55" y="300" type="curve"/>
      <point x="55" y="274"/>
      <point x="66" y="263"/>
      <point x="83" y="263" type="curve" smooth="yes"/>
      <point x="101" y="263"/>
      <point x="112" y="275"/>
      <point x="112" y="300" type="curve" smooth="yes"/>
      <point x="112" y="324"/>
      <point x="101" y="336"/>
      <point x="83" y="336" type="curve" smooth="yes"/>
      <point x="66" y="336"/>
      <point x="55" y="324"/>
    </contour>
  </outline>
</glyph>
<glyph name="siluqleft-hb" format="2">
  <unicode hex="05BD"/>
  <note>
meteg
</note>
  <anchor x="74" y="0" name="_bottomleft"/>
  <outline>
    <contour>
      <point x="53" y="-246" type="line"/>
      <point x="94" y="-244" type="line"/>
      <point x="94" y="-70" type="line"/>
      <point x="53" y="-73" type="line"/>
    </contour>
  </outline>
</glyph>
<glyph name="maqaf-hb" format="2">
  <advance width="241"/>
  <unicode hex="05BE"/>
  <outline>
    <contour>
      <point x="20" y="513" type="line"/>
      <point x="221" y="513" type="line"/>
      <point x="221" y="591" type="line"/>
      <point x="20" y="591" type="line"/>
    </contour>
  </outline>
</glyph>
<glyph name="rafe-hb" format="2">
  <unicode hex="05BF"/>
  <note>
rafe
</note>
  <anchor x="149" y="536" name="_top"/>
  <outline>
    <contour>
      <point x="79" y="674" type="line"/>
      <point x="217" y="674" type="line"/>
      <point x="219" y="719" type="line"/>
      <point x="81" y="719" type="line"/>
    </contour>
  </outline>
</glyph>
<glyph name="paseq-hb" format="2">
  <advance width="433"/>
  <unicode hex="05C0"/>
  <note>
paseq
</note>
  <outline>
    <contour>
      <point x="194" y="673" type="line"/>
      <point x="194" y="-81" type="line"/>
      <point x="238" y="-81" type="line"/>
      <point x="238" y="673" type="line"/>
    </contour>
  </outline>
</glyph>
<glyph name="shindot-hb" format="2">
  <unicode hex="05C1"/>
  <note>
shindot
</note>
  <anchor x="84" y="536" name="_topright"/>
  <outline>
    <contour>
      <point x="83" y="670" type="curve" smooth="yes"/>
      <point x="101" y="670"/>
      <point x="112" y="682"/>
      <point x="112" y="707" type="curve" smooth="yes"/>
      <point x="112" y="731"/>
      <point x="101" y="743"/>
      <point x="83" y="743" type="curve" smooth="yes"/>
      <point x="66" y="743"/>
      <point x="55" y="731"/>
      <point x="55" y="707" type="curve"/>
      <point x="55" y="680"/>
      <point x="66" y="670"/>
    </contour>
  </outline>
</glyph>
<glyph name="sofpasuq-hb" format="2">
  <advance width="203"/>
  <unicode hex="05C3"/>
  <note>
sofpasuq
</note>
  <outline>
    <contour>
      <point x="102" y="419" type="curve" smooth="yes"/>
      <point x="123" y="419"/>
      <point x="142" y="432"/>
      <point x="142" y="473" type="curve" smooth="yes"/>
      <point x="142" y="514"/>
      <point x="123" y="526"/>
      <point x="102" y="526" type="curve" smooth="yes"/>
      <point x="79" y="526"/>
      <point x="61" y="514"/>
      <point x="61" y="473" type="curve" smooth="yes"/>
      <point x="61" y="432"/>
      <point x="79" y="419"/>
    </contour>
    <contour>
      <point x="102" y="-6" type="curve" smooth="yes"/>
      <point x="123" y="-6"/>
      <point x="142" y="7"/>
      <point x="142" y="48" type="curve" smooth="yes"/>
      <point x="142" y="89"/>
      <point x="123" y="102"/>
      <point x="102" y="102" type="curve" smooth="yes"/>
      <point x="79" y="102"/>
      <point x="61" y="89"/>
      <point x="61" y="48" type="curve" smooth="yes"/>
      <point x="61" y="7"/>
      <point x="79" y="-6"/>
    </contour>
  </outline>
</glyph>
<glyph name="nunhafukha-hb" format="2">
  <advance width="252"/>
  <unicode hex="05C6"/>
  <note>
uni05C6
</note>
  <outline>
    <contour>
      <point x="127" y="0" type="curve" smooth="yes"/>
      <point x="237" y="0" type="line"/>
      <point x="218" y="78" type="line"/>
      <point x="164" y="78" type="line" smooth="yes"/>
      <point x="98" y="78"/>
      <point x="89" y="99"/>
      <point x="89" y="172" type="curve" smooth="yes"/>
      <point x="89" y="431" type="line" smooth="yes"/>
      <point x="89" y="496"/>
      <point x="88" y="514"/>
      <point x="126" y="514" type="curve" smooth="yes"/>
      <point x="142" y="514" type="line" smooth="yes"/>
      <point x="179" y="514"/>
      <point x="187" y="530"/>
      <point x="187" y="565" type="curve" smooth="yes"/>
      <point x="187" y="589"/>
      <point x="179" y="624"/>
      <point x="174" y="647" type="curve"/>
      <point x="157" y="647" type="line"/>
      <point x="157" y="644" type="line" smooth="yes"/>
      <point x="157" y="612"/>
      <point x="152" y="592"/>
      <point x="122" y="592" type="curve" smooth="yes"/>
      <point x="102" y="592" type="line" smooth="yes"/>
      <point x="58" y="592"/>
      <point x="45" y="567"/>
      <point x="45" y="486" type="curve" smooth="yes"/>
      <point x="45" y="150" type="line" smooth="yes"/>
      <point x="45" y="31"/>
      <point x="65" y="0"/>
    </contour>
  </outline>
</glyph>
<glyph name="qamatsqatan-hb" format="2">
  <unicode hex="05C7"/>
  <note>
qamatsqatan
</note>
  <anchor x="119" y="0" name="_bottom"/>
  <outline>
    <contour>
      <point x="98" y="-190" type="line"/>
      <point x="140" y="-190" type="line"/>
      <point x="135" y="-129" type="line"/>
      <point x="176" y="-129" type="line"/>
      <point x="179" y="-84" type="line"/>
      <point x="62" y="-84" type="line"/>
      <point x="59" y="-129" type="line"/>
      <point x="104" y="-129" type="line"/>
    </contour>
  </outline>
</glyph>
<glyph name="alef-hb" format="2">
  <advance width="436"/>
  <unicode hex="05D0"/>
  <anchor x="237" y="0" name="bottom"/>
  <anchor x="39" y="0" name="bottomleft"/>
  <anchor x="205" y="146" name="center"/>
  <anchor x="207" y="536" name="top"/>
  <anchor x="18" y="536" name="topleft"/>
  <outline>
    <contour>
      <point x="369" y="-10" type="curve"/>
      <point x="382" y="-10" type="line"/>
      <point x="389" y="4"/>
      <point x="394" y="23"/>
      <point x="394" y="42" type="curve" smooth="yes"/>
      <point x="394" y="74"/>
      <point x="385" y="86"/>
      <point x="356" y="137" type="curve" smooth="yes"/>
      <point x="109" y="573" type="line" smooth="yes"/>
      <point x="98" y="593"/>
      <point x="86" y="619"/>
      <point x="86" y="643" type="curve" smooth="yes"/>
      <point x="86" y="647" type="line"/>
      <point x="69" y="647" type="line"/>
      <point x="65" y="634"/>
      <point x="55" y="609"/>
      <point x="55" y="586" type="curve" smooth="yes"/>
      <point x="55" y="560"/>
      <point x="66" y="536"/>
      <point x="85" y="503" type="curve" smooth="yes"/>
      <point x="342" y="52" type="line" smooth="yes"/>
      <point x="360" y="20"/>
      <point x="368" y="7"/>
    </contour>
    <contour>
      <point x="31" y="0" type="line"/>
      <point x="125" y="0" type="line"/>
      <point x="131" y="27"/>
      <point x="123" y="81"/>
      <point x="119" y="115" type="curve" smooth="yes"/>
      <point x="107" y="206" type="line" smooth="yes"/>
      <point x="100" y="258"/>
      <point x="123" y="304"/>
      <point x="144" y="363" type="curve" smooth="yes"/>
      <point x="166" y="424" type="line"/>
      <point x="125" y="439" type="line"/>
      <point x="93" y="349" type="line" smooth="yes"/>
      <point x="73" y="292"/>
      <point x="55" y="250"/>
      <point x="60" y="187" type="curve" smooth="yes"/>
      <point x="70" y="52" type="line" smooth="yes"/>
      <point x="71" y="44"/>
      <point x="70" y="40"/>
      <point x="65" y="40" type="curve" smooth="yes"/>
      <point x="31" y="40" type="line"/>
    </contour>
    <contour>
      <point x="306" y="218" type="line"/>
      <point x="306" y="282"/>
      <point x="314" y="329"/>
      <point x="332" y="384" type="curve" smooth="yes"/>
      <point x="387" y="548" type="line"/>
      <point x="349" y="549" type="line"/>
      <point x="297" y="408" type="line" smooth="yes"/>
      <point x="280" y="361"/>
      <point x="262" y="304"/>
      <point x="262" y="283" type="curve"/>
    </contour>
    <contour>
      <point x="403" y="509" type="line"/>
      <point x="407" y="525"/>
      <point x="410" y="538"/>
      <point x="410" y="551" type="curve" smooth="yes"/>
      <point x="410" y="582"/>
      <point x="391" y="588"/>
      <point x="378" y="591" type="curve" smooth="yes"/>
      <point x="352" y="597" type="line" smooth="yes"/>
      <point x="333" y="601"/>
      <point x="328" y="618"/>
      <point x="328" y="643" type="curve" smooth="yes"/>
      <point x="328" y="647" type="line"/>
      <point x="311" y="647" type="line"/>
      <point x="301" y="617"/>
      <point x="297" y="589"/>
      <point x="297" y="568" type="curve" smooth="yes"/>
      <point x="297" y="547"/>
      <point x="301" y="533"/>
      <point x="331" y="526" type="curve" smooth="yes"/>
    </contour>
  </outline>
</glyph>
<glyph name="bet-hb" format="2">
  <advance width="387"/>
  <unicode hex="05D1"/>
  <anchor x="190" y="0" name="bottom"/>
  <anchor x="-14" y="0" name="bottomleft"/>
  <anchor x="156" y="308" name="center"/>
  <anchor x="162" y="536" name="top"/>
  <anchor x="-5" y="536" name="topleft"/>
  <outline>
    <contour>
      <point x="22" y="0" type="line"/>
      <point x="357" y="0" type="line"/>
      <point x="357" y="79" type="line"/>
      <point x="310" y="79" type="line"/>
      <point x="316" y="111"/>
      <point x="318" y="145"/>
      <point x="318" y="212" type="curve" smooth="yes"/>
      <point x="318" y="474" type="line" smooth="yes"/>
      <point x="318" y="556"/>
      <point x="291" y="592"/>
      <point x="229" y="592" type="curve" smooth="yes"/>
      <point x="95" y="592" type="line" smooth="yes"/>
      <point x="66" y="592"/>
      <point x="59" y="612"/>
      <point x="59" y="644" type="curve" smooth="yes"/>
      <point x="59" y="647" type="line"/>
      <point x="42" y="647" type="line"/>
      <point x="37" y="625"/>
      <point x="29" y="588"/>
      <point x="29" y="566" type="curve" smooth="yes"/>
      <point x="29" y="530"/>
      <point x="37" y="514"/>
      <point x="74" y="514" type="curve" smooth="yes"/>
      <point x="228" y="514" type="line" smooth="yes"/>
      <point x="259" y="514"/>
      <point x="274" y="494"/>
      <point x="274" y="429" type="curve" smooth="yes"/>
      <point x="274" y="179" type="line" smooth="yes"/>
      <point x="274" y="125"/>
      <point x="271" y="111"/>
      <point x="266" y="79" type="curve"/>
      <point x="41" y="79" type="line"/>
    </contour>
  </outline>
</glyph>
<glyph name="gimel-hb" format="2">
  <advance width="246"/>
  <unicode hex="05D2"/>
  <anchor x="159" y="0" name="bottom"/>
  <anchor x="1" y="0" name="bottomleft"/>
  <anchor x="81" y="308" name="center"/>
  <anchor x="142" y="536" name="top"/>
  <anchor x="18" y="536" name="topleft"/>
  <outline>
    <contour>
      <point x="205" y="-9" type="curve"/>
      <point x="211" y="-9" type="line"/>
      <point x="222" y="-1"/>
      <point x="230" y="7"/>
      <point x="235" y="16" type="curve"/>
      <point x="203" y="113" type="line" smooth="yes"/>
      <point x="186" y="163"/>
      <point x="185" y="183"/>
      <point x="185" y="231" type="curve" smooth="yes"/>
      <point x="185" y="562" type="line" smooth="yes"/>
      <point x="185" y="584"/>
      <point x="175" y="592"/>
      <point x="157" y="592" type="curve" smooth="yes"/>
      <point x="127" y="592" type="line" smooth="yes"/>
      <point x="101" y="592"/>
      <point x="91" y="608"/>
      <point x="91" y="642" type="curve" smooth="yes"/>
      <point x="91" y="647" type="line"/>
      <point x="73" y="647" type="line"/>
      <point x="69" y="624"/>
      <point x="60" y="596"/>
      <point x="60" y="562" type="curve" smooth="yes"/>
      <point x="60" y="527"/>
      <point x="70" y="514"/>
      <point x="106" y="514" type="curve" smooth="yes"/>
      <point x="116" y="514" type="line" smooth="yes"/>
      <point x="138" y="514"/>
      <point x="141" y="509"/>
      <point x="141" y="487" type="curve" smooth="yes"/>
      <point x="141" y="171" type="line" smooth="yes"/>
      <point x="141" y="133"/>
      <point x="142" y="78"/>
      <point x="109" y="78" type="curve" smooth="yes"/>
      <point x="27" y="78" type="line"/>
      <point x="8" y="0" type="line"/>
      <point x="103" y="0" type="line" smooth="yes"/>
      <point x="124" y="0"/>
      <point x="132" y="13"/>
      <point x="142" y="41" type="curve" smooth="yes"/>
      <point x="163" y="102" type="line"/>
      <point x="177" y="70"/>
      <point x="189" y="49"/>
    </contour>
  </outline>
</glyph>
<glyph name="dalet-hb" format="2">
  <advance width="347"/>
  <unicode hex="05D3"/>
  <anchor x="267" y="0" name="bottom"/>
  <anchor x="75" y="0" name="bottomleft"/>
  <anchor x="146" y="308" name="center"/>
  <anchor x="186" y="536" name="top"/>
  <anchor x="-12" y="536" name="topleft"/>
  <outline>
    <contour>
      <point x="231" y="-7" type="line"/>
      <point x="240" y="-7" type="line"/>
      <point x="255" y="4"/>
      <point x="271" y="14"/>
      <point x="282" y="29" type="curve"/>
      <point x="272" y="514" type="line"/>
      <point x="314" y="514" type="line"/>
      <point x="314" y="566" type="line" smooth="yes"/>
      <point x="314" y="585"/>
      <point x="305" y="592"/>
      <point x="291" y="592" type="curve" smooth="yes"/>
      <point x="75" y="592" type="line" smooth="yes"/>
      <point x="48" y="592"/>
      <point x="38" y="608"/>
      <point x="38" y="642" type="curve" smooth="yes"/>
      <point x="38" y="647" type="line"/>
      <point x="21" y="647" type="line"/>
      <point x="16" y="625"/>
      <point x="8" y="594"/>
      <point x="8" y="562" type="curve" smooth="yes"/>
      <point x="8" y="527"/>
      <point x="18" y="514"/>
      <point x="54" y="514" type="curve" smooth="yes"/>
      <point x="239" y="514" type="line"/>
      <point x="239" y="513" type="line"/>
      <point x="233" y="480"/>
      <point x="231" y="424"/>
      <point x="231" y="335" type="curve" smooth="yes"/>
    </contour>
  </outline>
</glyph>
<glyph name="he-hb" format="2">
  <advance width="432"/>
  <unicode hex="05D4"/>
  <anchor x="211" y="0" name="bottom"/>
  <anchor x="22" y="0" name="bottomleft"/>
  <anchor x="211" y="308" name="center"/>
  <anchor x="233" y="536" name="top"/>
  <anchor x="-5" y="536" name="topleft"/>
  <outline>
    <contour>
      <point x="319" y="-7" type="line"/>
      <point x="328" y="-7" type="line"/>
      <point x="344" y="3"/>
      <point x="362" y="14"/>
      <point x="370" y="29" type="curve"/>
      <point x="361" y="514" type="line"/>
      <point x="380" y="520" type="line"/>
      <point x="380" y="566" type="line" smooth="yes"/>
      <point x="380" y="585"/>
      <point x="371" y="592"/>
      <point x="357" y="592" type="curve" smooth="yes"/>
      <point x="108" y="592" type="line" smooth="yes"/>
      <point x="80" y="592"/>
      <point x="71" y="607"/>
      <point x="71" y="641" type="curve" smooth="yes"/>
      <point x="71" y="647" type="line"/>
      <point x="54" y="647" type="line"/>
      <point x="49" y="625"/>
      <point x="41" y="593"/>
      <point x="41" y="562" type="curve" smooth="yes"/>
      <point x="41" y="527"/>
      <point x="51" y="514"/>
      <point x="87" y="514" type="curve" smooth="yes"/>
      <point x="328" y="514" type="line"/>
      <point x="328" y="511" type="line"/>
      <point x="323" y="478"/>
      <point x="319" y="422"/>
      <point x="319" y="331" type="curve" smooth="yes"/>
    </contour>
    <contour>
      <point x="55" y="-7" type="line"/>
      <point x="64" y="-7" type="line"/>
      <point x="81" y="5"/>
      <point x="95" y="13"/>
      <point x="103" y="29" type="curve"/>
      <point x="102" y="367" type="line"/>
      <point x="97" y="373" type="line"/>
      <point x="85" y="365" type="line" smooth="yes"/>
      <point x="72" y="357"/>
      <point x="55" y="338"/>
      <point x="55" y="293" type="curve" smooth="yes"/>
    </contour>
  </outline>
</glyph>
<glyph name="vav-hb" format="2">
  <advance width="216"/>
  <unicode hex="05D5"/>
  <anchor x="156" y="0" name="bottom"/>
  <anchor x="-35" y="0" name="bottomleft"/>
  <anchor x="64" y="308" name="center"/>
  <anchor x="113" y="536" name="top"/>
  <anchor x="103" y="536" name="topleft"/>
  <outline>
    <contour>
      <point x="117" y="-7" type="line"/>
      <point x="126" y="-7" type="line"/>
      <point x="140" y="4"/>
      <point x="155" y="13"/>
      <point x="168" y="30" type="curve"/>
      <point x="157" y="535" type="line" smooth="yes"/>
      <point x="156" y="577"/>
      <point x="146" y="592"/>
      <point x="113" y="592" type="curve" smooth="yes"/>
      <point x="91" y="592" type="line" smooth="yes"/>
      <point x="62" y="592"/>
      <point x="56" y="612"/>
      <point x="56" y="644" type="curve" smooth="yes"/>
      <point x="56" y="647" type="line"/>
      <point x="39" y="647" type="line"/>
      <point x="31" y="611"/>
      <point x="26" y="587"/>
      <point x="26" y="562" type="curve" smooth="yes"/>
      <point x="26" y="531"/>
      <point x="34" y="514"/>
      <point x="71" y="514" type="curve" smooth="yes"/>
      <point x="91" y="514" type="line" smooth="yes"/>
      <point x="113" y="514"/>
      <point x="117" y="504"/>
      <point x="117" y="478" type="curve" smooth="yes"/>
    </contour>
  </outline>
</glyph>
<glyph name="zayin-hb" format="2">
  <advance width="177"/>
  <unicode hex="05D6"/>
  <anchor x="110" y="0" name="bottom"/>
  <anchor x="-63" y="0" name="bottomleft"/>
  <anchor x="6" y="308" name="center"/>
  <anchor x="99" y="536" name="top"/>
  <anchor x="-13" y="536" name="topleft"/>
  <outline>
    <contour>
      <point x="80" y="-6" type="curve"/>
      <point x="89" y="-6" type="line"/>
      <point x="107" y="4"/>
      <point x="117" y="13"/>
      <point x="130" y="28" type="curve"/>
      <point x="120" y="92"/>
      <point x="98" y="215"/>
      <point x="98" y="325" type="curve" smooth="yes"/>
      <point x="98" y="394"/>
      <point x="108" y="457"/>
      <point x="117" y="535" type="curve"/>
      <point x="80" y="535" type="line"/>
      <point x="58" y="443"/>
      <point x="54" y="363"/>
      <point x="54" y="308" type="curve" smooth="yes"/>
      <point x="54" y="214"/>
      <point x="66" y="73"/>
    </contour>
    <contour>
      <point x="145" y="509" type="line"/>
      <point x="149" y="524"/>
      <point x="151" y="538"/>
      <point x="151" y="549" type="curve" smooth="yes"/>
      <point x="151" y="574"/>
      <point x="140" y="586"/>
      <point x="120" y="590" type="curve" smooth="yes"/>
      <point x="89" y="597" type="line" smooth="yes"/>
      <point x="69" y="601"/>
      <point x="63" y="618"/>
      <point x="63" y="642" type="curve" smooth="yes"/>
      <point x="63" y="647" type="line"/>
      <point x="46" y="647" type="line"/>
      <point x="37" y="616"/>
      <point x="33" y="591"/>
      <point x="33" y="570" type="curve" smooth="yes"/>
      <point x="33" y="546"/>
      <point x="38" y="531"/>
      <point x="68" y="525" type="curve" smooth="yes"/>
    </contour>
  </outline>
</glyph>
<glyph name="het-hb" format="2">
  <advance width="444"/>
  <unicode hex="05D7"/>
  <anchor x="223" y="0" name="bottom"/>
  <anchor x="29" y="0" name="bottomleft"/>
  <anchor x="223" y="308" name="center"/>
  <anchor x="236" y="536" name="top"/>
  <anchor x="-41" y="536" name="topleft"/>
  <outline>
    <contour>
      <point x="326" y="-7" type="line"/>
      <point x="335" y="-7" type="line"/>
      <point x="351" y="3"/>
      <point x="368" y="14"/>
      <point x="377" y="29" type="curve"/>
      <point x="368" y="514" type="line"/>
      <point x="387" y="520" type="line"/>
      <point x="387" y="566" type="line" smooth="yes"/>
      <point x="387" y="585"/>
      <point x="378" y="592"/>
      <point x="364" y="592" type="curve" smooth="yes"/>
      <point x="107" y="592" type="line" smooth="yes"/>
      <point x="80" y="592"/>
      <point x="70" y="608"/>
      <point x="70" y="642" type="curve" smooth="yes"/>
      <point x="70" y="647" type="line"/>
      <point x="53" y="647" type="line"/>
      <point x="48" y="625"/>
      <point x="40" y="593"/>
      <point x="40" y="562" type="curve" smooth="yes"/>
      <point x="40" y="527"/>
      <point x="50" y="514"/>
      <point x="86" y="514" type="curve" smooth="yes"/>
      <point x="336" y="514" type="line"/>
      <point x="336" y="511" type="line"/>
      <point x="331" y="478"/>
      <point x="326" y="421"/>
      <point x="326" y="331" type="curve" smooth="yes"/>
    </contour>
    <contour>
      <point x="68" y="-7" type="line"/>
      <point x="78" y="-7" type="line"/>
      <point x="94" y="3"/>
      <point x="112" y="14"/>
      <point x="120" y="29" type="curve"/>
      <point x="112" y="547" type="line"/>
      <point x="79" y="547" type="line"/>
      <point x="79" y="511" type="line"/>
      <point x="73" y="478"/>
      <point x="68" y="419"/>
      <point x="68" y="330" type="curve" smooth="yes"/>
    </contour>
  </outline>
</glyph>
<glyph name="tet-hb" format="2">
  <advance width="417"/>
  <unicode hex="05D8"/>
  <anchor x="204" y="0" name="bottom"/>
  <anchor x="10" y="0" name="bottomleft"/>
  <anchor x="221" y="308" name="center"/>
  <anchor x="221" y="536" name="top"/>
  <anchor x="-16" y="536" name="topleft"/>
  <outline>
    <contour>
      <point x="77" y="0" type="curve"/>
      <point x="271" y="0" type="line" smooth="yes"/>
      <point x="310" y="0"/>
      <point x="318" y="12"/>
      <point x="334" y="56" type="curve" smooth="yes"/>
      <point x="386" y="199"/>
      <point x="392" y="314"/>
      <point x="392" y="379" type="curve" smooth="yes"/>
      <point x="392" y="516"/>
      <point x="365" y="604"/>
      <point x="300" y="604" type="curve" smooth="yes"/>
      <point x="245" y="604"/>
      <point x="201" y="541"/>
      <point x="191" y="415" type="curve"/>
      <point x="210" y="415" type="line"/>
      <point x="219" y="466"/>
      <point x="243" y="528"/>
      <point x="294" y="528" type="curve" smooth="yes"/>
      <point x="335" y="528"/>
      <point x="348" y="487"/>
      <point x="348" y="379" type="curve" smooth="yes"/>
      <point x="348" y="285"/>
      <point x="338" y="199"/>
      <point x="317" y="145" type="curve" smooth="yes"/>
      <point x="300" y="102"/>
      <point x="276" y="78"/>
      <point x="246" y="78" type="curve" smooth="yes"/>
      <point x="118" y="78" type="line"/>
      <point x="108" y="145"/>
      <point x="97" y="243"/>
      <point x="97" y="327" type="curve" smooth="yes"/>
      <point x="97" y="411"/>
      <point x="108" y="468"/>
      <point x="118" y="531" type="curve"/>
      <point x="76" y="531" type="line"/>
      <point x="60" y="466"/>
      <point x="53" y="365"/>
      <point x="53" y="309" type="curve" smooth="yes"/>
      <point x="53" y="232"/>
      <point x="66" y="106"/>
    </contour>
    <contour>
      <point x="138" y="509" type="line"/>
      <point x="141" y="524"/>
      <point x="144" y="538"/>
      <point x="144" y="550" type="curve" smooth="yes"/>
      <point x="144" y="575"/>
      <point x="131" y="587"/>
      <point x="113" y="591" type="curve" smooth="yes"/>
      <point x="89" y="596" type="line" smooth="yes"/>
      <point x="69" y="600"/>
      <point x="63" y="619"/>
      <point x="63" y="643" type="curve" smooth="yes"/>
      <point x="63" y="647" type="line"/>
      <point x="46" y="647" type="line"/>
      <point x="37" y="615"/>
      <point x="33" y="589"/>
      <point x="33" y="568" type="curve" smooth="yes"/>
      <point x="33" y="544"/>
      <point x="38" y="528"/>
      <point x="68" y="522" type="curve" smooth="yes"/>
    </contour>
  </outline>
</glyph>
<glyph name="yod-hb" format="2">
  <advance width="222"/>
  <unicode hex="05D9"/>
  <anchor x="112" y="0" name="bottom"/>
  <anchor x="-53" y="0" name="bottomleft"/>
  <anchor x="73" y="446" name="center"/>
  <anchor x="117" y="536" name="top"/>
  <anchor x="-48" y="536" name="topleft"/>
  <outline>
    <contour>
      <point x="108" y="308" type="line"/>
      <point x="146" y="366" type="line" smooth="yes"/>
      <point x="181" y="420"/>
      <point x="192" y="460"/>
      <point x="192" y="509" type="curve" smooth="yes"/>
      <point x="192" y="571"/>
      <point x="175" y="592"/>
      <point x="134" y="592" type="curve" smooth="yes"/>
      <point x="93" y="592" type="line" smooth="yes"/>
      <point x="66" y="592"/>
      <point x="56" y="607"/>
      <point x="56" y="642" type="curve" smooth="yes"/>
      <point x="56" y="647" type="line"/>
      <point x="39" y="647" type="line"/>
      <point x="33" y="619"/>
      <point x="26" y="594"/>
      <point x="26" y="563" type="curve" smooth="yes"/>
      <point x="26" y="527"/>
      <point x="36" y="514"/>
      <point x="72" y="514" type="curve" smooth="yes"/>
      <point x="109" y="514" type="line" smooth="yes"/>
      <point x="137" y="514"/>
      <point x="138" y="492"/>
      <point x="138" y="477" type="curve" smooth="yes"/>
      <point x="138" y="444"/>
      <point x="126" y="416"/>
      <point x="104" y="376" type="curve" smooth="yes"/>
      <point x="79" y="331" type="line"/>
    </contour>
  </outline>
</glyph>
<glyph name="finalkaf-hb" format="2">
  <advance width="351"/>
  <unicode hex="05DA"/>
  <anchor x="108" y="417" name="bottom"/>
  <anchor x="9" y="0" name="bottomleft"/>
  <anchor x="121" y="308" name="center"/>
  <anchor x="158" y="536" name="top"/>
  <anchor x="-14" y="536" name="topleft"/>
  <outline>
    <contour>
      <point x="239" y="-240" type="line"/>
      <point x="249" y="-240" type="line"/>
      <point x="264" y="-230"/>
      <point x="281" y="-219"/>
      <point x="289" y="-204" type="curve"/>
      <point x="281" y="364" type="line" smooth="yes"/>
      <point x="280" y="459"/>
      <point x="282" y="487"/>
      <point x="299" y="525" type="curve"/>
      <point x="299" y="566" type="line" smooth="yes"/>
      <point x="299" y="585"/>
      <point x="293" y="592"/>
      <point x="277" y="592" type="curve" smooth="yes"/>
      <point x="74" y="592" type="line" smooth="yes"/>
      <point x="47" y="592"/>
      <point x="37" y="608"/>
      <point x="37" y="642" type="curve" smooth="yes"/>
      <point x="37" y="647" type="line"/>
      <point x="20" y="647" type="line"/>
      <point x="15" y="625"/>
      <point x="7" y="593"/>
      <point x="7" y="562" type="curve" smooth="yes"/>
      <point x="7" y="527"/>
      <point x="17" y="514"/>
      <point x="53" y="514" type="curve" smooth="yes"/>
      <point x="253" y="514" type="line"/>
      <point x="253" y="512" type="line"/>
      <point x="243" y="465"/>
      <point x="239" y="406"/>
      <point x="239" y="330" type="curve" smooth="yes"/>
    </contour>
  </outline>
</glyph>
<glyph name="kaf-hb" format="2">
  <advance width="381"/>
  <unicode hex="05DB"/>
  <anchor x="173" y="0" name="bottom"/>
  <anchor x="-21" y="0" name="bottomleft"/>
  <anchor x="176" y="308" name="center"/>
  <anchor x="175" y="536" name="top"/>
  <anchor x="-1" y="536" name="topleft"/>
  <outline>
    <contour>
      <point x="30" y="0" type="line"/>
      <point x="240" y="0" type="line" smooth="yes"/>
      <point x="318" y="0"/>
      <point x="336" y="43"/>
      <point x="336" y="170" type="curve" smooth="yes"/>
      <point x="336" y="460" type="line" smooth="yes"/>
      <point x="336" y="544"/>
      <point x="308" y="592"/>
      <point x="248" y="592" type="curve" smooth="yes"/>
      <point x="98" y="592" type="line" smooth="yes"/>
      <point x="69" y="592"/>
      <point x="63" y="612"/>
      <point x="63" y="644" type="curve" smooth="yes"/>
      <point x="63" y="647" type="line"/>
      <point x="46" y="647" type="line"/>
      <point x="39" y="616"/>
      <point x="33" y="588"/>
      <point x="33" y="562" type="curve" smooth="yes"/>
      <point x="33" y="530"/>
      <point x="42" y="514"/>
      <point x="78" y="514" type="curve" smooth="yes"/>
      <point x="234" y="514" type="line" smooth="yes"/>
      <point x="278" y="514"/>
      <point x="292" y="485"/>
      <point x="292" y="418" type="curve" smooth="yes"/>
      <point x="292" y="188" type="line" smooth="yes"/>
      <point x="292" y="111"/>
      <point x="284" y="78"/>
      <point x="226" y="78" type="curve" smooth="yes"/>
      <point x="48" y="78" type="line"/>
    </contour>
  </outline>
</glyph>
<glyph name="lamed-hb" format="2">
  <advance width="353"/>
  <unicode hex="05DC"/>
  <anchor x="135" y="0" name="bottom"/>
  <anchor x="-49" y="0" name="bottomleft"/>
  <anchor x="149" y="333" name="center"/>
  <anchor x="187" y="536" name="top"/>
  <anchor x="-1" y="536" name="topleft"/>
  <outline>
    <contour>
      <point x="133" y="-7" type="curve" smooth="yes"/>
      <point x="148" y="-7"/>
      <point x="157" y="6"/>
      <point x="157" y="24" type="curve" smooth="yes"/>
      <point x="157" y="67" type="line" smooth="yes"/>
      <point x="157" y="94"/>
      <point x="167" y="112"/>
      <point x="180" y="130" type="curve" smooth="yes"/>
      <point x="284" y="281" type="line" smooth="yes"/>
      <point x="305" y="312"/>
      <point x="315" y="336"/>
      <point x="315" y="359" type="curve" smooth="yes"/>
      <point x="315" y="509" type="line" smooth="yes"/>
      <point x="315" y="554"/>
      <point x="297" y="592"/>
      <point x="245" y="592" type="curve" smooth="yes"/>
      <point x="91" y="592" type="line" smooth="yes"/>
      <point x="71" y="592"/>
      <point x="63" y="608"/>
      <point x="69" y="643" type="curve" smooth="yes"/>
      <point x="92" y="777" type="line" smooth="yes"/>
      <point x="98" y="813"/>
      <point x="96" y="826"/>
      <point x="76" y="832" type="curve" smooth="yes"/>
      <point x="52" y="839" type="line" smooth="yes"/>
      <point x="39" y="843"/>
      <point x="33" y="848"/>
      <point x="33" y="868" type="curve" smooth="yes"/>
      <point x="33" y="873" type="line"/>
      <point x="21" y="873" type="line"/>
      <point x="16" y="861"/>
      <point x="7" y="844"/>
      <point x="7" y="824" type="curve" smooth="yes"/>
      <point x="7" y="804"/>
      <point x="16" y="789"/>
      <point x="33" y="784" type="curve" smooth="yes"/>
      <point x="46" y="780" type="line" smooth="yes"/>
      <point x="56" y="777"/>
      <point x="53" y="768"/>
      <point x="51" y="758" type="curve" smooth="yes"/>
      <point x="42" y="713"/>
      <point x="19" y="596"/>
      <point x="19" y="560" type="curve" smooth="yes"/>
      <point x="19" y="522"/>
      <point x="45" y="514"/>
      <point x="76" y="514" type="curve" smooth="yes"/>
      <point x="245" y="514" type="line" smooth="yes"/>
      <point x="263" y="514"/>
      <point x="272" y="508"/>
      <point x="272" y="478" type="curve" smooth="yes"/>
      <point x="272" y="358" type="line" smooth="yes"/>
      <point x="272" y="342"/>
      <point x="268" y="332"/>
      <point x="255" y="313" type="curve" smooth="yes"/>
      <point x="141" y="150" type="line" smooth="yes"/>
      <point x="121" y="121"/>
      <point x="106" y="97"/>
      <point x="106" y="65" type="curve" smooth="yes"/>
      <point x="106" y="24" type="line" smooth="yes"/>
      <point x="106" y="5"/>
      <point x="119" y="-7"/>
    </contour>
  </outline>
</glyph>
<glyph name="finalmem-hb" format="2">
  <advance width="409"/>
  <unicode hex="05DD"/>
  <anchor x="173" y="0" name="bottom"/>
  <anchor x="-22" y="0" name="bottomleft"/>
  <anchor x="200" y="308" name="center"/>
  <anchor x="194" y="536" name="top"/>
  <anchor x="-1" y="536" name="topleft"/>
  <outline>
    <contour>
      <point x="82" y="0" type="curve" smooth="yes"/>
      <point x="263" y="0" type="line" smooth="yes"/>
      <point x="330" y="0"/>
      <point x="357" y="30"/>
      <point x="357" y="142" type="curve" smooth="yes"/>
      <point x="357" y="468" type="line" smooth="yes"/>
      <point x="357" y="552"/>
      <point x="320" y="592"/>
      <point x="269" y="592" type="curve" smooth="yes"/>
      <point x="100" y="592" type="line" smooth="yes"/>
      <point x="69" y="592"/>
      <point x="64" y="612"/>
      <point x="64" y="644" type="curve" smooth="yes"/>
      <point x="64" y="647" type="line"/>
      <point x="47" y="647" type="line"/>
      <point x="42" y="624"/>
      <point x="34" y="590"/>
      <point x="34" y="562" type="curve" smooth="yes"/>
      <point x="34" y="530"/>
      <point x="44" y="514"/>
      <point x="80" y="514" type="curve"/>
      <point x="268" y="514" type="line" smooth="yes"/>
      <point x="304" y="514"/>
      <point x="313" y="493"/>
      <point x="313" y="426" type="curve" smooth="yes"/>
      <point x="313" y="171" type="line" smooth="yes"/>
      <point x="313" y="104"/>
      <point x="299" y="78"/>
      <point x="236" y="78" type="curve" smooth="yes"/>
      <point x="86" y="78" type="line"/>
      <point x="86" y="363" type="line" smooth="yes"/>
      <point x="86" y="423"/>
      <point x="96" y="487"/>
      <point x="127" y="514" type="curve"/>
      <point x="127" y="528" type="line"/>
      <point x="82" y="528" type="line"/>
      <point x="82" y="512" type="line"/>
      <point x="54" y="467"/>
      <point x="42" y="418"/>
      <point x="42" y="363" type="curve" smooth="yes"/>
      <point x="42" y="54" type="line" smooth="yes"/>
      <point x="42" y="10"/>
      <point x="52" y="0"/>
    </contour>
  </outline>
</glyph>
<glyph name="mem-hb" format="2">
  <advance width="437"/>
  <unicode hex="05DE"/>
  <anchor x="217" y="0" name="bottom"/>
  <anchor x="24" y="0" name="bottomleft"/>
  <anchor x="226" y="308" name="center"/>
  <anchor x="241" y="536" name="top"/>
  <anchor x="-1" y="536" name="topleft"/>
  <outline>
    <contour>
      <point x="31" y="0" type="line"/>
      <point x="76" y="0" type="line"/>
      <point x="95" y="275" type="line" smooth="yes"/>
      <point x="103" y="395"/>
      <point x="142" y="518"/>
      <point x="244" y="518" type="curve" smooth="yes"/>
      <point x="338" y="518"/>
      <point x="356" y="415"/>
      <point x="356" y="263" type="curve" smooth="yes"/>
      <point x="356" y="175"/>
      <point x="350" y="137"/>
      <point x="343" y="111" type="curve" smooth="yes"/>
      <point x="336" y="84"/>
      <point x="331" y="78"/>
      <point x="305" y="78" type="curve" smooth="yes"/>
      <point x="197" y="78" type="line"/>
      <point x="185" y="0" type="line"/>
      <point x="378" y="0" type="line"/>
      <point x="395" y="161"/>
      <point x="400" y="214"/>
      <point x="400" y="273" type="curve" smooth="yes"/>
      <point x="400" y="492"/>
      <point x="330" y="598"/>
      <point x="215" y="598" type="curve" smooth="yes"/>
      <point x="202" y="598" type="line"/>
      <point x="142" y="515" type="line"/>
      <point x="141" y="516" type="line"/>
      <point x="141" y="565" type="line" smooth="yes"/>
      <point x="141" y="579"/>
      <point x="139" y="592"/>
      <point x="119" y="592" type="curve" smooth="yes"/>
      <point x="95" y="592" type="line" smooth="yes"/>
      <point x="65" y="592"/>
      <point x="60" y="612"/>
      <point x="60" y="644" type="curve" smooth="yes"/>
      <point x="60" y="647" type="line"/>
      <point x="43" y="647" type="line"/>
      <point x="38" y="624"/>
      <point x="30" y="590"/>
      <point x="30" y="561" type="curve" smooth="yes"/>
      <point x="30" y="530"/>
      <point x="39" y="514"/>
      <point x="75" y="514" type="curve" smooth="yes"/>
      <point x="94" y="514" type="line" smooth="yes"/>
      <point x="105" y="514"/>
      <point x="110" y="508"/>
      <point x="110" y="497" type="curve" smooth="yes"/>
      <point x="110" y="490"/>
      <point x="108" y="480"/>
      <point x="100" y="463" type="curve" smooth="yes"/>
      <point x="89" y="440"/>
      <point x="59" y="375"/>
      <point x="51" y="272" type="curve" smooth="yes"/>
    </contour>
  </outline>
</glyph>
<glyph name="finalnun-hb" format="2">
  <advance width="185"/>
  <unicode hex="05DF"/>
  <anchor x="-15" y="0" name="bottomleft"/>
  <anchor x="34" y="308" name="center"/>
  <anchor x="95" y="536" name="top"/>
  <anchor x="-21" y="536" name="topleft"/>
  <outline>
    <contour>
      <point x="73" y="-240" type="line"/>
      <point x="83" y="-240" type="line"/>
      <point x="98" y="-228"/>
      <point x="112" y="-219"/>
      <point x="123" y="-204" type="curve"/>
      <point x="115" y="364" type="line" smooth="yes"/>
      <point x="114" y="460"/>
      <point x="116" y="487"/>
      <point x="133" y="525" type="curve"/>
      <point x="133" y="566" type="line" smooth="yes"/>
      <point x="133" y="585"/>
      <point x="127" y="592"/>
      <point x="112" y="592" type="curve" smooth="yes"/>
      <point x="75" y="592" type="line" smooth="yes"/>
      <point x="48" y="592"/>
      <point x="38" y="608"/>
      <point x="38" y="642" type="curve" smooth="yes"/>
      <point x="38" y="647" type="line"/>
      <point x="21" y="647" type="line"/>
      <point x="15" y="619"/>
      <point x="8" y="593"/>
      <point x="8" y="563" type="curve" smooth="yes"/>
      <point x="8" y="527"/>
      <point x="18" y="514"/>
      <point x="54" y="514" type="curve" smooth="yes"/>
      <point x="87" y="514" type="line"/>
      <point x="87" y="512" type="line"/>
      <point x="76" y="465"/>
      <point x="73" y="407"/>
      <point x="73" y="330" type="curve" smooth="yes"/>
    </contour>
  </outline>
</glyph>
<glyph name="nun-hb" format="2">
  <advance width="252"/>
  <unicode hex="05E0"/>
  <anchor x="114" y="0" name="bottom"/>
  <anchor x="-74" y="0" name="bottomleft"/>
  <anchor x="99" y="308" name="center"/>
  <anchor x="125" y="536" name="top"/>
  <anchor x="11" y="536" name="topleft"/>
  <outline>
    <contour>
      <point x="15" y="0" type="line"/>
      <point x="125" y="0" type="line" smooth="yes"/>
      <point x="187" y="0"/>
      <point x="207" y="31"/>
      <point x="207" y="150" type="curve" smooth="yes"/>
      <point x="207" y="504" type="line" smooth="yes"/>
      <point x="207" y="585"/>
      <point x="194" y="592"/>
      <point x="150" y="592" type="curve" smooth="yes"/>
      <point x="130" y="592" type="line" smooth="yes"/>
      <point x="100" y="592"/>
      <point x="95" y="612"/>
      <point x="95" y="644" type="curve" smooth="yes"/>
      <point x="95" y="647" type="line"/>
      <point x="78" y="647" type="line"/>
      <point x="73" y="624"/>
      <point x="65" y="590"/>
      <point x="65" y="561" type="curve" smooth="yes"/>
      <point x="65" y="530"/>
      <point x="74" y="514"/>
      <point x="110" y="514" type="curve" smooth="yes"/>
      <point x="126" y="514" type="line" smooth="yes"/>
      <point x="164" y="514"/>
      <point x="163" y="496"/>
      <point x="163" y="431" type="curve" smooth="yes"/>
      <point x="163" y="172" type="line" smooth="yes"/>
      <point x="163" y="99"/>
      <point x="154" y="78"/>
      <point x="88" y="78" type="curve" smooth="yes"/>
      <point x="34" y="78" type="line"/>
    </contour>
  </outline>
</glyph>
<glyph name="samekh-hb" format="2">
  <advance width="415"/>
  <unicode hex="05E1"/>
  <anchor x="208" y="0" name="bottom"/>
  <anchor x="-4" y="0" name="bottomleft"/>
  <anchor x="212" y="308" name="center"/>
  <anchor x="202" y="536" name="top"/>
  <anchor x="1" y="536" name="topleft"/>
  <outline>
    <contour>
      <point x="213" y="-9" type="curve" smooth="yes"/>
      <point x="370" y="-9"/>
      <point x="378" y="214"/>
      <point x="378" y="325" type="curve" smooth="yes"/>
      <point x="378" y="381"/>
      <point x="376" y="423"/>
      <point x="364" y="477" type="curve" smooth="yes"/>
      <point x="347" y="550"/>
      <point x="321" y="592"/>
      <point x="256" y="592" type="curve" smooth="yes"/>
      <point x="103" y="592" type="line" smooth="yes"/>
      <point x="72" y="592"/>
      <point x="67" y="612"/>
      <point x="67" y="644" type="curve" smooth="yes"/>
      <point x="67" y="647" type="line"/>
      <point x="50" y="647" type="line"/>
      <point x="45" y="623"/>
      <point x="37" y="599"/>
      <point x="37" y="562" type="curve" smooth="yes"/>
      <point x="37" y="536"/>
      <point x="41" y="514"/>
      <point x="82" y="514" type="curve" smooth="yes"/>
      <point x="241" y="514" type="line" smooth="yes"/>
      <point x="307" y="514"/>
      <point x="334" y="445"/>
      <point x="334" y="306" type="curve" smooth="yes"/>
      <point x="334" y="165"/>
      <point x="306" y="69"/>
      <point x="211" y="69" type="curve" smooth="yes"/>
      <point x="122" y="69"/>
      <point x="90" y="153"/>
      <point x="90" y="283" type="curve" smooth="yes"/>
      <point x="90" y="381"/>
      <point x="108" y="486"/>
      <point x="119" y="514" type="curve"/>
      <point x="119" y="530" type="line"/>
      <point x="77" y="530" type="line"/>
      <point x="77" y="512" type="line"/>
      <point x="61" y="454"/>
      <point x="46" y="363"/>
      <point x="46" y="276" type="curve" smooth="yes"/>
      <point x="46" y="122"/>
      <point x="93" y="-9"/>
    </contour>
  </outline>
</glyph>
<glyph name="ayin-hb" format="2">
  <advance width="391"/>
  <unicode hex="05E2"/>
  <anchor x="176" y="0" name="bottom"/>
  <anchor x="-9" y="0" name="bottomleft"/>
  <anchor x="203" y="380" name="center"/>
  <anchor x="188" y="536" name="top"/>
  <anchor x="0" y="536" name="topleft"/>
  <outline>
    <contour>
      <point x="17" y="-72" type="line"/>
      <point x="23" y="-72" type="line"/>
      <point x="144" y="34" type="line" smooth="yes"/>
      <point x="292" y="163"/>
      <point x="334" y="441"/>
      <point x="346" y="502" type="curve" smooth="yes"/>
      <point x="355" y="548" type="line" smooth="yes"/>
      <point x="360" y="571"/>
      <point x="346" y="584"/>
      <point x="326" y="589" type="curve" smooth="yes"/>
      <point x="297" y="596" type="line" smooth="yes"/>
      <point x="277" y="601"/>
      <point x="273" y="619"/>
      <point x="273" y="643" type="curve" smooth="yes"/>
      <point x="273" y="647" type="line"/>
      <point x="255" y="647" type="line"/>
      <point x="247" y="615"/>
      <point x="241" y="591"/>
      <point x="241" y="563" type="curve" smooth="yes"/>
      <point x="241" y="540"/>
      <point x="245" y="529"/>
      <point x="276" y="522" type="curve" smooth="yes"/>
      <point x="316" y="513" type="line"/>
      <point x="303" y="460" type="line" smooth="yes"/>
      <point x="275" y="345"/>
      <point x="250" y="202"/>
      <point x="145" y="120" type="curve" smooth="yes"/>
      <point x="17" y="20" type="line"/>
    </contour>
    <contour>
      <point x="150" y="118" type="line"/>
      <point x="193" y="149" type="line"/>
      <point x="121" y="351" type="line" smooth="yes"/>
      <point x="99" y="412"/>
      <point x="107" y="473"/>
      <point x="112" y="524" type="curve"/>
      <point x="77" y="525" type="line"/>
      <point x="67" y="457"/>
      <point x="62" y="382"/>
      <point x="82" y="322" type="curve" smooth="yes"/>
    </contour>
    <contour>
      <point x="135" y="509" type="line"/>
      <point x="139" y="524"/>
      <point x="141" y="538"/>
      <point x="141" y="549" type="curve" smooth="yes"/>
      <point x="141" y="571"/>
      <point x="133" y="586"/>
      <point x="110" y="591" type="curve" smooth="yes"/>
      <point x="86" y="596" type="line" smooth="yes"/>
      <point x="67" y="600"/>
      <point x="62" y="619"/>
      <point x="62" y="643" type="curve" smooth="yes"/>
      <point x="62" y="647" type="line"/>
      <point x="44" y="647" type="line"/>
      <point x="35" y="616"/>
      <point x="30" y="589"/>
      <point x="30" y="568" type="curve" smooth="yes"/>
      <point x="30" y="538"/>
      <point x="40" y="527"/>
      <point x="65" y="522" type="curve" smooth="yes"/>
    </contour>
  </outline>
</glyph>
<glyph name="finalpe-hb" format="2">
  <advance width="387"/>
  <unicode hex="05E3"/>
  <anchor x="-5" y="0" name="bottomleft"/>
  <anchor x="220" y="286" name="center"/>
  <anchor x="139" y="536" name="top"/>
  <anchor x="-14" y="536" name="topleft"/>
  <outline>
    <contour>
      <point x="292" y="-240" type="line"/>
      <point x="302" y="-240" type="line"/>
      <point x="316" y="-230"/>
      <point x="333" y="-219"/>
      <point x="342" y="-204" type="curve"/>
      <point x="330" y="466" type="line" smooth="yes"/>
      <point x="329" y="549"/>
      <point x="287" y="592"/>
      <point x="219" y="592" type="curve" smooth="yes"/>
      <point x="81" y="592" type="line" smooth="yes"/>
      <point x="48" y="592"/>
      <point x="45" y="612"/>
      <point x="45" y="644" type="curve" smooth="yes"/>
      <point x="45" y="647" type="line"/>
      <point x="28" y="647" type="line"/>
      <point x="23" y="624"/>
      <point x="15" y="590"/>
      <point x="15" y="561" type="curve" smooth="yes"/>
      <point x="15" y="530"/>
      <point x="24" y="514"/>
      <point x="60" y="514" type="curve" smooth="yes"/>
      <point x="214" y="514" type="line" smooth="yes"/>
      <point x="260" y="514"/>
      <point x="292" y="487"/>
      <point x="292" y="426" type="curve" smooth="yes"/>
    </contour>
    <contour>
      <point x="142" y="228" type="curve"/>
      <point x="148" y="239"/>
      <point x="152" y="252"/>
      <point x="152" y="271" type="curve" smooth="yes"/>
      <point x="152" y="308"/>
      <point x="136" y="324"/>
      <point x="113" y="324" type="curve" smooth="yes"/>
      <point x="94" y="324"/>
      <point x="82" y="312"/>
      <point x="72" y="304" type="curve"/>
      <point x="72" y="310" type="line" smooth="yes"/>
      <point x="72" y="404"/>
      <point x="99" y="483"/>
      <point x="109" y="514" type="curve"/>
      <point x="109" y="529" type="line"/>
      <point x="67" y="529" type="line"/>
      <point x="67" y="513" type="line"/>
      <point x="41" y="456"/>
      <point x="23" y="340"/>
      <point x="23" y="247" type="curve" smooth="yes"/>
      <point x="23" y="234" type="line"/>
      <point x="47" y="234" type="line"/>
      <point x="62" y="249"/>
      <point x="77" y="257"/>
      <point x="94" y="257" type="curve" smooth="yes"/>
      <point x="116" y="257"/>
      <point x="132" y="244"/>
    </contour>
  </outline>
</glyph>
<glyph name="pe-hb" format="2">
  <advance width="405"/>
  <unicode hex="05E4"/>
  <anchor x="204" y="0" name="bottom"/>
  <anchor x="28" y="0" name="bottomleft"/>
  <anchor x="249" y="308" name="center"/>
  <anchor x="186" y="536" name="top"/>
  <anchor x="-6" y="536" name="topleft"/>
  <outline>
    <contour>
      <point x="33" y="0" type="line"/>
      <point x="264" y="0" type="line" smooth="yes"/>
      <point x="342" y="0"/>
      <point x="360" y="43"/>
      <point x="360" y="170" type="curve" smooth="yes"/>
      <point x="360" y="460" type="line" smooth="yes"/>
      <point x="360" y="544"/>
      <point x="331" y="592"/>
      <point x="272" y="592" type="curve" smooth="yes"/>
      <point x="110" y="592" type="line" smooth="yes"/>
      <point x="77" y="592"/>
      <point x="74" y="612"/>
      <point x="74" y="644" type="curve" smooth="yes"/>
      <point x="74" y="647" type="line"/>
      <point x="56" y="647" type="line"/>
      <point x="51" y="624"/>
      <point x="43" y="590"/>
      <point x="43" y="562" type="curve" smooth="yes"/>
      <point x="43" y="530"/>
      <point x="53" y="514"/>
      <point x="88" y="514" type="curve" smooth="yes"/>
      <point x="259" y="514" type="line" smooth="yes"/>
      <point x="303" y="514"/>
      <point x="316" y="485"/>
      <point x="316" y="418" type="curve" smooth="yes"/>
      <point x="316" y="188" type="line" smooth="yes"/>
      <point x="316" y="111"/>
      <point x="309" y="78"/>
      <point x="251" y="78" type="curve" smooth="yes"/>
      <point x="52" y="78" type="line"/>
    </contour>
    <contour>
      <point x="171" y="253" type="curve"/>
      <point x="177" y="264"/>
      <point x="181" y="277"/>
      <point x="181" y="296" type="curve" smooth="yes"/>
      <point x="181" y="333"/>
      <point x="165" y="349"/>
      <point x="142" y="349" type="curve" smooth="yes"/>
      <point x="123" y="349"/>
      <point x="111" y="337"/>
      <point x="101" y="329" type="curve"/>
      <point x="101" y="335" type="line" smooth="yes"/>
      <point x="101" y="429"/>
      <point x="129" y="493"/>
      <point x="138" y="514" type="curve"/>
      <point x="138" y="529" type="line"/>
      <point x="95" y="529" type="line"/>
      <point x="95" y="513" type="line"/>
      <point x="73" y="468"/>
      <point x="52" y="357"/>
      <point x="52" y="272" type="curve" smooth="yes"/>
      <point x="52" y="259" type="line"/>
      <point x="76" y="259" type="line"/>
      <point x="93" y="276"/>
      <point x="107" y="282"/>
      <point x="123" y="282" type="curve" smooth="yes"/>
      <point x="146" y="282"/>
      <point x="161" y="269"/>
    </contour>
  </outline>
</glyph>
<glyph name="finaltsadi-hb" format="2">
  <advance width="333"/>
  <unicode hex="05E5"/>
  <anchor x="-37" y="0" name="bottomleft"/>
  <anchor x="139" y="456" name="center"/>
  <anchor x="179" y="536" name="top"/>
  <anchor x="-10" y="536" name="topleft"/>
  <outline>
    <contour>
      <point x="52" y="-240" type="line"/>
      <point x="62" y="-240" type="line"/>
      <point x="80" y="-230"/>
      <point x="91" y="-224"/>
      <point x="102" y="-204" type="curve"/>
      <point x="97" y="52" type="line" smooth="yes"/>
      <point x="94" y="195"/>
      <point x="182" y="400"/>
      <point x="276" y="494" type="curve" smooth="yes"/>
      <point x="303" y="521" type="line"/>
      <point x="273" y="532" type="line"/>
      <point x="235" y="493" type="line" smooth="yes"/>
      <point x="160" y="416"/>
      <point x="114" y="334"/>
      <point x="93" y="255" type="curve"/>
      <point x="90" y="333" type="line" smooth="yes"/>
      <point x="86" y="442"/>
      <point x="97" y="489"/>
      <point x="114" y="529" type="curve"/>
      <point x="76" y="529" type="line"/>
      <point x="76" y="520" type="line"/>
      <point x="64" y="477"/>
      <point x="52" y="440"/>
      <point x="52" y="332" type="curve" smooth="yes"/>
    </contour>
    <contour>
      <point x="140" y="509" type="line"/>
      <point x="143" y="520"/>
      <point x="145" y="538"/>
      <point x="145" y="551" type="curve" smooth="yes"/>
      <point x="145" y="575"/>
      <point x="137" y="588"/>
      <point x="117" y="592" type="curve" smooth="yes"/>
      <point x="87" y="598" type="line" smooth="yes"/>
      <point x="73" y="601"/>
      <point x="64" y="619"/>
      <point x="64" y="643" type="curve" smooth="yes"/>
      <point x="64" y="647" type="line"/>
      <point x="47" y="647" type="line"/>
      <point x="39" y="615"/>
      <point x="33" y="589"/>
      <point x="33" y="567" type="curve" smooth="yes"/>
      <point x="33" y="538"/>
      <point x="43" y="527"/>
      <point x="68" y="522" type="curve" smooth="yes"/>
    </contour>
    <contour>
      <point x="317" y="509" type="line"/>
      <point x="321" y="520"/>
      <point x="323" y="538"/>
      <point x="323" y="551" type="curve" smooth="yes"/>
      <point x="323" y="575"/>
      <point x="315" y="588"/>
      <point x="295" y="592" type="curve" smooth="yes"/>
      <point x="265" y="598" type="line" smooth="yes"/>
      <point x="250" y="601"/>
      <point x="242" y="619"/>
      <point x="242" y="643" type="curve" smooth="yes"/>
      <point x="242" y="647" type="line"/>
      <point x="225" y="647" type="line"/>
      <point x="217" y="615"/>
      <point x="210" y="589"/>
      <point x="210" y="565" type="curve" smooth="yes"/>
      <point x="210" y="538"/>
      <point x="219" y="527"/>
      <point x="245" y="522" type="curve" smooth="yes"/>
    </contour>
  </outline>
</glyph>
<glyph name="tsadi-hb" format="2">
  <advance width="381"/>
  <unicode hex="05E6"/>
  <anchor x="163" y="0" name="bottom"/>
  <anchor x="-31" y="0" name="bottomleft"/>
  <anchor x="73" y="251" name="center"/>
  <anchor x="197" y="536" name="top"/>
  <anchor x="-9" y="536" name="topleft"/>
  <outline>
    <contour>
      <point x="22" y="0" type="line"/>
      <point x="303" y="0" type="line"/>
      <point x="309" y="22"/>
      <point x="327" y="80"/>
      <point x="327" y="102" type="curve" smooth="yes"/>
      <point x="327" y="126"/>
      <point x="325" y="152"/>
      <point x="288" y="201" type="curve" smooth="yes"/>
      <point x="197" y="323" type="line" smooth="yes"/>
      <point x="156" y="378"/>
      <point x="151" y="391"/>
      <point x="151" y="439" type="curve" smooth="yes"/>
      <point x="151" y="551" type="line" smooth="yes"/>
      <point x="151" y="586"/>
      <point x="139" y="592"/>
      <point x="118" y="592" type="curve" smooth="yes"/>
      <point x="101" y="592" type="line" smooth="yes"/>
      <point x="69" y="592"/>
      <point x="66" y="611"/>
      <point x="66" y="643" type="curve" smooth="yes"/>
      <point x="66" y="647" type="line"/>
      <point x="49" y="647" type="line"/>
      <point x="43" y="625"/>
      <point x="36" y="589"/>
      <point x="36" y="560" type="curve" smooth="yes"/>
      <point x="36" y="528"/>
      <point x="45" y="514"/>
      <point x="80" y="514" type="curve" smooth="yes"/>
      <point x="95" y="514" type="line" smooth="yes"/>
      <point x="103" y="514"/>
      <point x="107" y="511"/>
      <point x="107" y="495" type="curve" smooth="yes"/>
      <point x="107" y="425" type="line" smooth="yes"/>
      <point x="107" y="371"/>
      <point x="131" y="334"/>
      <point x="157" y="297" type="curve" smooth="yes"/>
      <point x="243" y="177" type="line" smooth="yes"/>
      <point x="261" y="152"/>
      <point x="266" y="139"/>
      <point x="266" y="116" type="curve" smooth="yes"/>
      <point x="266" y="106"/>
      <point x="264" y="97"/>
      <point x="258" y="90" type="curve" smooth="yes"/>
      <point x="253" y="83"/>
      <point x="243" y="78"/>
      <point x="228" y="78" type="curve" smooth="yes"/>
      <point x="36" y="78" type="line"/>
    </contour>
    <contour>
      <point x="245" y="253" type="line"/>
      <point x="245" y="293"/>
      <point x="251" y="332"/>
      <point x="268" y="375" type="curve" smooth="yes"/>
      <point x="324" y="517" type="line"/>
      <point x="291" y="529" type="line"/>
      <point x="230" y="383" type="line" smooth="yes"/>
      <point x="220" y="359"/>
      <point x="207" y="318"/>
      <point x="207" y="296" type="curve"/>
    </contour>
    <contour>
      <point x="352" y="509" type="line"/>
      <point x="357" y="520"/>
      <point x="359" y="538"/>
      <point x="359" y="550" type="curve" smooth="yes"/>
      <point x="359" y="569"/>
      <point x="354" y="587"/>
      <point x="327" y="592" type="curve" smooth="yes"/>
      <point x="295" y="598" type="line" smooth="yes"/>
      <point x="277" y="601"/>
      <point x="272" y="619"/>
      <point x="272" y="643" type="curve" smooth="yes"/>
      <point x="272" y="647" type="line"/>
      <point x="254" y="647" type="line"/>
      <point x="245" y="610"/>
      <point x="240" y="588"/>
      <point x="240" y="568" type="curve" smooth="yes"/>
      <point x="240" y="535"/>
      <point x="253" y="527"/>
      <point x="274" y="523" type="curve" smooth="yes"/>
    </contour>
  </outline>
</glyph>
<glyph name="qof-hb" format="2">
  <advance width="400"/>
  <unicode hex="05E7"/>
  <anchor x="236" y="0" name="bottom"/>
  <anchor x="-18" y="0" name="bottomleft"/>
  <anchor x="211" y="308" name="center"/>
  <anchor x="207" y="536" name="top"/>
  <anchor x="1" y="536" name="topleft"/>
  <outline>
    <contour>
      <point x="203" y="-7" type="curve" smooth="yes"/>
      <point x="218" y="-7"/>
      <point x="227" y="6"/>
      <point x="227" y="22" type="curve" smooth="yes"/>
      <point x="227" y="54" type="line" smooth="yes"/>
      <point x="227" y="88"/>
      <point x="226" y="99"/>
      <point x="244" y="119" type="curve" smooth="yes"/>
      <point x="331" y="220" type="line" smooth="yes"/>
      <point x="356" y="249"/>
      <point x="363" y="274"/>
      <point x="363" y="339" type="curve" smooth="yes"/>
      <point x="363" y="510" type="line" smooth="yes"/>
      <point x="363" y="578"/>
      <point x="344" y="592"/>
      <point x="296" y="592" type="curve" smooth="yes"/>
      <point x="118" y="592" type="line" smooth="yes"/>
      <point x="85" y="592"/>
      <point x="82" y="612"/>
      <point x="82" y="644" type="curve" smooth="yes"/>
      <point x="82" y="647" type="line"/>
      <point x="65" y="647" type="line"/>
      <point x="60" y="624"/>
      <point x="52" y="590"/>
      <point x="52" y="561" type="curve" smooth="yes"/>
      <point x="52" y="530"/>
      <point x="61" y="514"/>
      <point x="97" y="514" type="curve" smooth="yes"/>
      <point x="299" y="514" type="line" smooth="yes"/>
      <point x="314" y="514"/>
      <point x="319" y="511"/>
      <point x="319" y="495" type="curve" smooth="yes"/>
      <point x="319" y="338" type="line" smooth="yes"/>
      <point x="319" y="287"/>
      <point x="318" y="277"/>
      <point x="295" y="249" type="curve" smooth="yes"/>
      <point x="206" y="144" type="line" smooth="yes"/>
      <point x="184" y="118"/>
      <point x="176" y="91"/>
      <point x="176" y="53" type="curve" smooth="yes"/>
      <point x="176" y="22" type="line" smooth="yes"/>
      <point x="176" y="5"/>
      <point x="188" y="-7"/>
    </contour>
    <contour>
      <point x="63" y="-240" type="line"/>
      <point x="70" y="-240" type="line"/>
      <point x="85" y="-230"/>
      <point x="101" y="-219"/>
      <point x="111" y="-204" type="curve"/>
      <point x="101" y="347" type="line"/>
      <point x="96" y="354" type="line"/>
      <point x="86" y="346" type="line" smooth="yes"/>
      <point x="70" y="333"/>
      <point x="63" y="317"/>
      <point x="63" y="273" type="curve" smooth="yes"/>
    </contour>
  </outline>
</glyph>
<glyph name="resh-hb" format="2">
  <advance width="339"/>
  <unicode hex="05E8"/>
  <anchor x="278" y="0" name="bottom"/>
  <anchor x="85" y="0" name="bottomleft"/>
  <anchor x="151" y="308" name="center"/>
  <anchor x="139" y="536" name="top"/>
  <anchor x="0" y="536" name="topleft"/>
  <outline>
    <contour>
      <point x="244" y="-7" type="line"/>
      <point x="253" y="-7" type="line"/>
      <point x="272" y="3"/>
      <point x="285" y="11"/>
      <point x="294" y="29" type="curve"/>
      <point x="285" y="486" type="line" smooth="yes"/>
      <point x="284" y="562"/>
      <point x="269" y="592"/>
      <point x="208" y="592" type="curve" smooth="yes"/>
      <point x="73" y="592" type="line" smooth="yes"/>
      <point x="40" y="592"/>
      <point x="37" y="612"/>
      <point x="37" y="644" type="curve" smooth="yes"/>
      <point x="37" y="647" type="line"/>
      <point x="20" y="647" type="line"/>
      <point x="15" y="624"/>
      <point x="7" y="590"/>
      <point x="7" y="561" type="curve" smooth="yes"/>
      <point x="7" y="530"/>
      <point x="16" y="514"/>
      <point x="52" y="514" type="curve" smooth="yes"/>
      <point x="204" y="514" type="line" smooth="yes"/>
      <point x="243" y="514"/>
      <point x="244" y="488"/>
      <point x="244" y="448" type="curve" smooth="yes"/>
    </contour>
  </outline>
</glyph>
<glyph name="shin-hb" format="2">
  <advance width="531"/>
  <unicode hex="05E9"/>
  <anchor x="212" y="0" name="bottom"/>
  <anchor x="17" y="0" name="bottomleft"/>
  <anchor x="351" y="310" name="center"/>
  <anchor x="102" y="536" name="top"/>
  <anchor x="4" y="536" name="topleft"/>
  <anchor x="439" y="536" name="topright"/>
  <outline>
    <contour>
      <point x="82" y="0" type="curve"/>
      <point x="304" y="0" type="line" smooth="yes"/>
      <point x="438" y="0"/>
      <point x="480" y="422"/>
      <point x="489" y="507" type="curve" smooth="yes"/>
      <point x="493" y="547" type="line" smooth="yes"/>
      <point x="495" y="573"/>
      <point x="483" y="585"/>
      <point x="465" y="589" type="curve" smooth="yes"/>
      <point x="428" y="598" type="line" smooth="yes"/>
      <point x="414" y="601"/>
      <point x="402" y="621"/>
      <point x="402" y="643" type="curve" smooth="yes"/>
      <point x="402" y="647" type="line"/>
      <point x="384" y="647" type="line"/>
      <point x="374" y="606"/>
      <point x="370" y="586"/>
      <point x="370" y="566" type="curve" smooth="yes"/>
      <point x="370" y="541"/>
      <point x="376" y="529"/>
      <point x="405" y="522" type="curve" smooth="yes"/>
      <point x="444" y="513" type="line"/>
      <point x="442" y="492" type="line" smooth="yes"/>
      <point x="435" y="417"/>
      <point x="407" y="78"/>
      <point x="299" y="78" type="curve" smooth="yes"/>
      <point x="240" y="78" type="line"/>
      <point x="304" y="513" type="line"/>
      <point x="330" y="509" type="line"/>
      <point x="333" y="519"/>
      <point x="335" y="541"/>
      <point x="335" y="552" type="curve" smooth="yes"/>
      <point x="335" y="578"/>
      <point x="323" y="588"/>
      <point x="307" y="591" type="curve" smooth="yes"/>
      <point x="273" y="597" type="line" smooth="yes"/>
      <point x="257" y="600"/>
      <point x="249" y="619"/>
      <point x="249" y="643" type="curve" smooth="yes"/>
      <point x="249" y="647" type="line"/>
      <point x="232" y="647" type="line"/>
      <point x="222" y="617"/>
      <point x="218" y="589"/>
      <point x="218" y="569" type="curve" smooth="yes"/>
      <point x="218" y="540"/>
      <point x="226" y="527"/>
      <point x="253" y="522" type="curve"/>
      <point x="262" y="521" type="line"/>
      <point x="195" y="78" type="line"/>
      <point x="124" y="78" type="line"/>
      <point x="114" y="152"/>
      <point x="103" y="245"/>
      <point x="103" y="321" type="curve" smooth="yes"/>
      <point x="103" y="391"/>
      <point x="112" y="453"/>
      <point x="121" y="514" type="curve"/>
      <point x="150" y="509" type="line"/>
      <point x="152" y="520"/>
      <point x="155" y="539"/>
      <point x="155" y="552" type="curve" smooth="yes"/>
      <point x="155" y="571"/>
      <point x="149" y="587"/>
      <point x="127" y="591" type="curve" smooth="yes"/>
      <point x="93" y="597" type="line" smooth="yes"/>
      <point x="77" y="600"/>
      <point x="69" y="619"/>
      <point x="69" y="643" type="curve" smooth="yes"/>
      <point x="69" y="647" type="line"/>
      <point x="52" y="647" type="line"/>
      <point x="43" y="616"/>
      <point x="38" y="589"/>
      <point x="38" y="567" type="curve" smooth="yes"/>
      <point x="38" y="537"/>
      <point x="47" y="526"/>
      <point x="73" y="522" type="curve" smooth="yes"/>
      <point x="80" y="521" type="line"/>
      <point x="66" y="455"/>
      <point x="59" y="355"/>
      <point x="59" y="302" type="curve" smooth="yes"/>
      <point x="59" y="229"/>
      <point x="73" y="82"/>
    </contour>
  </outline>
</glyph>
<glyph name="tav-hb" format="2">
  <advance width="415"/>
  <unicode hex="05EA"/>
  <anchor x="229" y="0" name="bottom"/>
  <anchor x="33" y="0" name="bottomleft"/>
  <anchor x="229" y="308" name="center"/>
  <anchor x="195" y="536" name="top"/>
  <anchor x="1" y="536" name="topleft"/>
  <outline>
    <contour>
      <point x="320" y="-7" type="line"/>
      <point x="330" y="-7" type="line"/>
      <point x="349" y="3"/>
      <point x="361" y="14"/>
      <point x="370" y="29" type="curve"/>
      <point x="361" y="486" type="line" smooth="yes"/>
      <point x="360" y="562"/>
      <point x="345" y="592"/>
      <point x="284" y="592" type="curve" smooth="yes"/>
      <point x="105" y="592" type="line" smooth="yes"/>
      <point x="72" y="592"/>
      <point x="69" y="612"/>
      <point x="69" y="644" type="curve" smooth="yes"/>
      <point x="69" y="647" type="line"/>
      <point x="52" y="647" type="line"/>
      <point x="46" y="624"/>
      <point x="39" y="590"/>
      <point x="39" y="562" type="curve" smooth="yes"/>
      <point x="39" y="530"/>
      <point x="48" y="514"/>
      <point x="83" y="514" type="curve" smooth="yes"/>
      <point x="280" y="514" type="line" smooth="yes"/>
      <point x="319" y="514"/>
      <point x="320" y="488"/>
      <point x="320" y="448" type="curve" smooth="yes"/>
    </contour>
    <contour>
      <point x="15" y="0" type="line"/>
      <point x="127" y="0" type="line"/>
      <point x="133" y="18"/>
      <point x="137" y="31"/>
      <point x="137" y="56" type="curve" smooth="yes"/>
      <point x="137" y="112"/>
      <point x="117" y="244"/>
      <point x="117" y="317" type="curve" smooth="yes"/>
      <point x="117" y="380"/>
      <point x="132" y="493"/>
      <point x="135" y="514" type="curve"/>
      <point x="135" y="539" type="line"/>
      <point x="102" y="539" type="line"/>
      <point x="102" y="512" type="line"/>
      <point x="86" y="424"/>
      <point x="70" y="352"/>
      <point x="73" y="281" type="curve" smooth="yes"/>
      <point x="81" y="111" type="line" smooth="yes"/>
      <point x="82" y="91"/>
      <point x="83" y="78"/>
      <point x="75" y="78" type="curve" smooth="yes"/>
      <point x="24" y="78" type="line"/>
    </contour>
  </outline>
</glyph>
<glyph name="vavvav-hb" format="2">
  <advance width="432"/>
  <unicode hex="05F0"/>
  <note>
vavvav
</note>
  <anchor x="215" y="0" name="bottom"/>
  <anchor x="14" y="0" name="bottomleft"/>
  <anchor x="216" y="0" name="caret_2"/>
  <anchor x="103" y="300" name="center"/>
  <anchor x="153" y="536" name="top"/>
  <anchor x="-1" y="536" name="topleft"/>
  <outline>
    <contour>
      <point x="340" y="-7" type="line"/>
      <point x="349" y="-7" type="line"/>
      <point x="363" y="4"/>
      <point x="371" y="13"/>
      <point x="384" y="30" type="curve"/>
      <point x="373" y="535" type="line" smooth="yes"/>
      <point x="372" y="577"/>
      <point x="362" y="592"/>
      <point x="329" y="592" type="curve" smooth="yes"/>
      <point x="307" y="592" type="line" smooth="yes"/>
      <point x="278" y="592"/>
      <point x="272" y="612"/>
      <point x="272" y="644" type="curve" smooth="yes"/>
      <point x="272" y="647" type="line"/>
      <point x="255" y="647" type="line"/>
      <point x="247" y="611"/>
      <point x="242" y="587"/>
      <point x="242" y="562" type="curve" smooth="yes"/>
      <point x="242" y="531"/>
      <point x="250" y="514"/>
      <point x="287" y="514" type="curve" smooth="yes"/>
      <point x="314" y="514" type="line" smooth="yes"/>
      <point x="336" y="514"/>
      <point x="340" y="504"/>
      <point x="340" y="478" type="curve" smooth="yes"/>
    </contour>
    <contour>
      <point x="124" y="-7" type="line"/>
      <point x="133" y="-7" type="line"/>
      <point x="147" y="4"/>
      <point x="155" y="13"/>
      <point x="168" y="30" type="curve"/>
      <point x="157" y="535" type="line" smooth="yes"/>
      <point x="156" y="577"/>
      <point x="146" y="592"/>
      <point x="113" y="592" type="curve" smooth="yes"/>
      <point x="91" y="592" type="line" smooth="yes"/>
      <point x="62" y="592"/>
      <point x="56" y="612"/>
      <point x="56" y="644" type="curve" smooth="yes"/>
      <point x="56" y="647" type="line"/>
      <point x="39" y="647" type="line"/>
      <point x="31" y="611"/>
      <point x="26" y="587"/>
      <point x="26" y="562" type="curve" smooth="yes"/>
      <point x="26" y="531"/>
      <point x="34" y="514"/>
      <point x="71" y="514" type="curve" smooth="yes"/>
      <point x="98" y="514" type="line" smooth="yes"/>
      <point x="120" y="514"/>
      <point x="124" y="504"/>
      <point x="124" y="478" type="curve" smooth="yes"/>
    </contour>
  </outline>
</glyph>
<glyph name="geresh-hb" format="2">
  <advance width="168"/>
  <unicode hex="05F3"/>
  <outline>
    <contour>
      <point x="42" y="399" type="line"/>
      <point x="102" y="439"/>
      <point x="126" y="504"/>
      <point x="126" y="575" type="curve" smooth="yes"/>
      <point x="126" y="623"/>
      <point x="98" y="647"/>
      <point x="69" y="647" type="curve" smooth="yes"/>
      <point x="42" y="647"/>
      <point x="20" y="628"/>
      <point x="20" y="594" type="curve" smooth="yes"/>
      <point x="20" y="544"/>
      <point x="77" y="552"/>
      <point x="77" y="512" type="curve" smooth="yes"/>
      <point x="77" y="485"/>
      <point x="66" y="456"/>
      <point x="42" y="435" type="curve"/>
    </contour>
  </outline>
</glyph>
<glyph name="gershayim-hb" format="2">
  <advance width="295"/>
  <unicode hex="05F4"/>
  <outline>
    <contour>
      <point x="46" y="399" type="line"/>
      <point x="106" y="439"/>
      <point x="130" y="504"/>
      <point x="130" y="575" type="curve" smooth="yes"/>
      <point x="130" y="623"/>
      <point x="102" y="647"/>
      <point x="73" y="647" type="curve" smooth="yes"/>
      <point x="46" y="647"/>
      <point x="24" y="628"/>
      <point x="24" y="594" type="curve" smooth="yes"/>
      <point x="24" y="544"/>
      <point x="81" y="552"/>
      <point x="81" y="512" type="curve" smooth="yes"/>
      <point x="81" y="485"/>
      <point x="70" y="456"/>
      <point x="46" y="435" type="curve"/>
    </contour>
    <contour>
      <point x="169" y="399" type="line"/>
      <point x="229" y="439"/>
      <point x="253" y="504"/>
      <point x="253" y="575" type="curve" smooth="yes"/>
      <point x="253" y="623"/>
      <point x="225" y="647"/>
      <point x="196" y="647" type="curve" smooth="yes"/>
      <point x="169" y="647"/>
      <point x="147" y="628"/>
      <point x="147" y="594" type="curve" smooth="yes"/>
      <point x="147" y="544"/>
      <point x="204" y="552"/>
      <point x="204" y="512" type="curve" smooth="yes"/>
      <point x="204" y="485"/>
      <point x="193" y="456"/>
      <point x="169" y="435" type="curve"/>
    </contour>
  </outline>
</glyph>
<glyph name="uni200E" format="2">
  <unicode hex="200E"/>
  <note>
uni200E
</note>
  <outline>
    <contour>
      <point x="210" y="574" type="line"/>
      <point x="104" y="679" type="line"/>
      <point x="80" y="655" type="line"/>
      <point x="147" y="592" type="line"/>
      <point x="-18" y="592" type="line"/>
      <point x="-18" y="-45" type="line"/>
      <point x="17" y="-45" type="line"/>
      <point x="17" y="557" type="line"/>
      <point x="147" y="557" type="line"/>
      <point x="80" y="494" type="line"/>
      <point x="104" y="470" type="line"/>
    </contour>
  </outline>
</glyph>
<glyph name="sheqel" format="2">
  <advance width="579"/>
  <unicode hex="20AA"/>
  <note>
sheqel
</note>
  <outline>
    <contour>
      <point x="222" y="0" type="curve"/>
      <point x="352" y="0" type="line" smooth="yes"/>
      <point x="448" y="0"/>
      <point x="490" y="224"/>
      <point x="500" y="308" type="curve" smooth="yes"/>
      <point x="528" y="563" type="line" smooth="yes"/>
      <point x="530" y="586"/>
      <point x="510" y="594"/>
      <point x="500" y="596" type="curve" smooth="yes"/>
      <point x="453" y="606" type="line" smooth="yes"/>
      <point x="440" y="609"/>
      <point x="430" y="619"/>
      <point x="430" y="643" type="curve" smooth="yes"/>
      <point x="430" y="647" type="line"/>
      <point x="414" y="647" type="line"/>
      <point x="405" y="609"/>
      <point x="400" y="599"/>
      <point x="400" y="573" type="curve" smooth="yes"/>
      <point x="400" y="546"/>
      <point x="405" y="537"/>
      <point x="435" y="531" type="curve" smooth="yes"/>
      <point x="484" y="521" type="line"/>
      <point x="482" y="500" type="line" smooth="yes"/>
      <point x="473" y="409"/>
      <point x="448" y="78"/>
      <point x="356" y="78" type="curve" smooth="yes"/>
      <point x="265" y="78" type="line"/>
      <point x="246" y="170"/>
      <point x="228" y="275"/>
      <point x="241" y="417" type="curve"/>
      <point x="209" y="417" type="line"/>
      <point x="202" y="375"/>
      <point x="196" y="318"/>
      <point x="196" y="270" type="curve" smooth="yes"/>
      <point x="196" y="209"/>
      <point x="204" y="152"/>
    </contour>
    <contour>
      <point x="84" y="-7" type="line"/>
      <point x="94" y="-7" type="line"/>
      <point x="114" y="3"/>
      <point x="126" y="10"/>
      <point x="135" y="29" type="curve"/>
      <point x="127" y="514" type="line"/>
      <point x="320" y="514" type="line"/>
      <point x="320" y="512" type="line"/>
      <point x="315" y="479"/>
      <point x="309" y="421"/>
      <point x="309" y="331" type="curve" smooth="yes"/>
      <point x="309" y="192" type="line"/>
      <point x="319" y="192" type="line"/>
      <point x="338" y="202"/>
      <point x="351" y="209"/>
      <point x="360" y="228" type="curve"/>
      <point x="351" y="514" type="line"/>
      <point x="370" y="520" type="line"/>
      <point x="370" y="566" type="line" smooth="yes"/>
      <point x="370" y="585"/>
      <point x="361" y="592"/>
      <point x="347" y="592" type="curve" smooth="yes"/>
      <point x="123" y="592" type="line" smooth="yes"/>
      <point x="96" y="592"/>
      <point x="86" y="607"/>
      <point x="86" y="642" type="curve" smooth="yes"/>
      <point x="86" y="647" type="line"/>
      <point x="69" y="647" type="line"/>
      <point x="61" y="611"/>
      <point x="56" y="591"/>
      <point x="56" y="563" type="curve" smooth="yes"/>
      <point x="56" y="527"/>
      <point x="64" y="514"/>
      <point x="94" y="514" type="curve" smooth="yes"/>
      <point x="95" y="514" type="line"/>
      <point x="95" y="511" type="line"/>
      <point x="89" y="478"/>
      <point x="84" y="419"/>
      <point x="84" y="330" type="curve" smooth="yes"/>
    </contour>
  </outline>
</glyph>
<glyph name="judeospanishvarika-hb" format="2">
  <unicode hex="FB1E"/>
  <note>
uniFB1E
</note>
  <anchor x="155" y="536" name="_top"/>
  <outline>
    <contour>
      <point x="236" y="764" type="curve"/>
      <point x="197" y="761" type="line"/>
      <point x="197" y="730"/>
      <point x="182" y="713"/>
      <point x="155" y="713" type="curve" smooth="yes"/>
      <point x="128" y="713"/>
      <point x="113" y="736"/>
      <point x="113" y="764" type="curve"/>
      <point x="75" y="761" type="line"/>
      <point x="75" y="706"/>
      <point x="105" y="668"/>
      <point x="155" y="668" type="curve" smooth="yes"/>
      <point x="206" y="668"/>
      <point x="236" y="708"/>
    </contour>
  </outline>
</glyph>
<glyph name="ayinaltone-hb" format="2">
  <advance width="401"/>
  <unicode hex="FB20"/>
  <note>
alternativeayin
</note>
  <anchor x="162" y="0" name="bottom"/>
  <anchor x="-32" y="0" name="bottomleft"/>
  <anchor x="192" y="536" name="top"/>
  <anchor x="0" y="536" name="topleft"/>
  <outline>
    <contour>
      <point x="15" y="0" type="line"/>
      <point x="177" y="0" type="line" smooth="yes"/>
      <point x="298" y="0"/>
      <point x="323" y="231"/>
      <point x="340" y="357" type="curve" smooth="yes"/>
      <point x="366" y="545" type="line" smooth="yes"/>
      <point x="369" y="570"/>
      <point x="350" y="583"/>
      <point x="333" y="588" type="curve" smooth="yes"/>
      <point x="307" y="596" type="line" smooth="yes"/>
      <point x="288" y="602"/>
      <point x="281" y="619"/>
      <point x="281" y="643" type="curve" smooth="yes"/>
      <point x="281" y="647" type="line"/>
      <point x="266" y="647" type="line"/>
      <point x="254" y="603"/>
      <point x="251" y="587"/>
      <point x="251" y="563" type="curve" smooth="yes"/>
      <point x="251" y="539"/>
      <point x="255" y="529"/>
      <point x="285" y="522" type="curve" smooth="yes"/>
      <point x="322" y="514" type="line"/>
      <point x="295" y="344" type="line" smooth="yes"/>
      <point x="280" y="247"/>
      <point x="253" y="78"/>
      <point x="176" y="78" type="curve" smooth="yes"/>
      <point x="24" y="78" type="line"/>
    </contour>
    <contour>
      <point x="139" y="37" type="line"/>
      <point x="181" y="66" type="line"/>
      <point x="112" y="351" type="line" smooth="yes"/>
      <point x="97" y="415"/>
      <point x="96" y="474"/>
      <point x="102" y="524" type="curve"/>
      <point x="67" y="525" type="line"/>
      <point x="57" y="457"/>
      <point x="59" y="389"/>
      <point x="74" y="323" type="curve" smooth="yes"/>
    </contour>
    <contour>
      <point x="128" y="509" type="line"/>
      <point x="132" y="524"/>
      <point x="135" y="538"/>
      <point x="135" y="550" type="curve" smooth="yes"/>
      <point x="135" y="575"/>
      <point x="123" y="586"/>
      <point x="103" y="591" type="curve" smooth="yes"/>
      <point x="79" y="597" type="line" smooth="yes"/>
      <point x="61" y="601"/>
      <point x="54" y="619"/>
      <point x="54" y="643" type="curve" smooth="yes"/>
      <point x="54" y="647" type="line"/>
      <point x="38" y="647" type="line"/>
      <point x="28" y="606"/>
      <point x="24" y="587"/>
      <point x="24" y="567" type="curve" smooth="yes"/>
      <point x="24" y="538"/>
      <point x="32" y="527"/>
      <point x="58" y="522" type="curve" smooth="yes"/>
    </contour>
  </outline>
</glyph>
<glyph name="widealef-hb" format="2">
  <advance width="659"/>
  <unicode hex="FB21"/>
  <note>
alefwide
</note>
  <outline>
    <contour>
      <point x="589" y="-10" type="curve"/>
      <point x="602" y="-10" type="line"/>
      <point x="611" y="10"/>
      <point x="613" y="19"/>
      <point x="614" y="42" type="curve" smooth="yes"/>
      <point x="616" y="85"/>
      <point x="610" y="105"/>
      <point x="576" y="137" type="curve" smooth="yes"/>
      <point x="109" y="573" type="line" smooth="yes"/>
      <point x="92" y="588"/>
      <point x="86" y="619"/>
      <point x="86" y="643" type="curve" smooth="yes"/>
      <point x="86" y="647" type="line"/>
      <point x="69" y="647" type="line"/>
      <point x="60" y="619"/>
      <point x="55" y="608"/>
      <point x="55" y="580" type="curve" smooth="yes"/>
      <point x="55" y="562"/>
      <point x="57" y="529"/>
      <point x="85" y="503" type="curve" smooth="yes"/>
      <point x="562" y="52" type="line" smooth="yes"/>
      <point x="589" y="27"/>
      <point x="588" y="7"/>
    </contour>
    <contour>
      <point x="31" y="0" type="line"/>
      <point x="125" y="0" type="line"/>
      <point x="129" y="18"/>
      <point x="128" y="46"/>
      <point x="119" y="115" type="curve" smooth="yes"/>
      <point x="107" y="206" type="line" smooth="yes"/>
      <point x="100" y="261"/>
      <point x="124" y="309"/>
      <point x="143" y="363" type="curve" smooth="yes"/>
      <point x="175" y="455" type="line"/>
      <point x="136" y="470" type="line"/>
      <point x="93" y="349" type="line" smooth="yes"/>
      <point x="73" y="292"/>
      <point x="55" y="251"/>
      <point x="60" y="187" type="curve" smooth="yes"/>
      <point x="70" y="52" type="line" smooth="yes"/>
      <point x="71" y="44"/>
      <point x="70" y="40"/>
      <point x="65" y="40" type="curve" smooth="yes"/>
      <point x="31" y="40" type="line"/>
    </contour>
    <contour>
      <point x="508" y="171" type="line"/>
      <point x="508" y="235"/>
      <point x="516" y="282"/>
      <point x="534" y="337" type="curve" smooth="yes"/>
      <point x="601" y="537" type="line"/>
      <point x="563" y="538" type="line"/>
      <point x="499" y="361" type="line" smooth="yes"/>
      <point x="482" y="314"/>
      <point x="464" y="257"/>
      <point x="464" y="236" type="curve"/>
    </contour>
    <contour>
      <point x="626" y="509" type="line"/>
      <point x="630" y="525"/>
      <point x="633" y="538"/>
      <point x="633" y="551" type="curve" smooth="yes"/>
      <point x="633" y="582"/>
      <point x="614" y="588"/>
      <point x="601" y="591" type="curve" smooth="yes"/>
      <point x="575" y="597" type="line" smooth="yes"/>
      <point x="556" y="601"/>
      <point x="551" y="618"/>
      <point x="551" y="643" type="curve" smooth="yes"/>
      <point x="551" y="647" type="line"/>
      <point x="534" y="647" type="line"/>
      <point x="524" y="617"/>
      <point x="520" y="589"/>
      <point x="520" y="568" type="curve" smooth="yes"/>
      <point x="520" y="547"/>
      <point x="524" y="533"/>
      <point x="554" y="526" type="curve" smooth="yes"/>
    </contour>
  </outline>
</glyph>
<glyph name="widedalet-hb" format="2">
  <advance width="567"/>
  <unicode hex="FB22"/>
  <note>
daletwide
</note>
  <outline>
    <contour>
      <point x="452" y="-7" type="line"/>
      <point x="461" y="-7" type="line"/>
      <point x="476" y="4"/>
      <point x="491" y="14"/>
      <point x="502" y="29" type="curve"/>
      <point x="492" y="514" type="line"/>
      <point x="534" y="514" type="line"/>
      <point x="534" y="566" type="line" smooth="yes"/>
      <point x="534" y="585"/>
      <point x="525" y="592"/>
      <point x="511" y="592" type="curve" smooth="yes"/>
      <point x="75" y="592" type="line" smooth="yes"/>
      <point x="48" y="592"/>
      <point x="38" y="608"/>
      <point x="38" y="642" type="curve" smooth="yes"/>
      <point x="38" y="647" type="line"/>
      <point x="21" y="647" type="line"/>
      <point x="16" y="625"/>
      <point x="8" y="594"/>
      <point x="8" y="562" type="curve" smooth="yes"/>
      <point x="8" y="527"/>
      <point x="18" y="514"/>
      <point x="54" y="514" type="curve" smooth="yes"/>
      <point x="460" y="514" type="line"/>
      <point x="460" y="513" type="line"/>
      <point x="454" y="480"/>
      <point x="452" y="424"/>
      <point x="452" y="335" type="curve" smooth="yes"/>
    </contour>
  </outline>
</glyph>
<glyph name="widehe-hb" format="2">
  <advance width="652"/>
  <unicode hex="FB23"/>
  <note>
hewide
</note>
  <outline>
    <contour>
      <point x="540" y="-7" type="line"/>
      <point x="549" y="-7" type="line"/>
      <point x="565" y="3"/>
      <point x="582" y="14"/>
      <point x="590" y="29" type="curve"/>
      <point x="581" y="514" type="line"/>
      <point x="600" y="520" type="line"/>
      <point x="600" y="566" type="line" smooth="yes"/>
      <point x="600" y="585"/>
      <point x="591" y="592"/>
      <point x="577" y="592" type="curve" smooth="yes"/>
      <point x="108" y="592" type="line" smooth="yes"/>
      <point x="80" y="592"/>
      <point x="71" y="607"/>
      <point x="71" y="641" type="curve" smooth="yes"/>
      <point x="71" y="647" type="line"/>
      <point x="54" y="647" type="line"/>
      <point x="49" y="625"/>
      <point x="41" y="593"/>
      <point x="41" y="562" type="curve" smooth="yes"/>
      <point x="41" y="527"/>
      <point x="51" y="514"/>
      <point x="87" y="514" type="curve" smooth="yes"/>
      <point x="549" y="514" type="line"/>
      <point x="549" y="511" type="line"/>
      <point x="544" y="478"/>
      <point x="540" y="422"/>
      <point x="540" y="331" type="curve" smooth="yes"/>
    </contour>
    <contour>
      <point x="55" y="-7" type="line"/>
      <point x="64" y="-7" type="line"/>
      <point x="81" y="5"/>
      <point x="94" y="13"/>
      <point x="102" y="29" type="curve"/>
      <point x="101" y="367" type="line"/>
      <point x="96" y="373" type="line"/>
      <point x="84" y="365" type="line" smooth="yes"/>
      <point x="71" y="357"/>
      <point x="55" y="338"/>
      <point x="55" y="293" type="curve" smooth="yes"/>
    </contour>
  </outline>
</glyph>
<glyph name="widekaf-hb" format="2">
  <advance width="601"/>
  <unicode hex="FB24"/>
  <note>
kafwide
</note>
  <outline>
    <contour>
      <point x="30" y="0" type="line"/>
      <point x="460" y="0" type="line" smooth="yes"/>
      <point x="538" y="0"/>
      <point x="556" y="43"/>
      <point x="556" y="170" type="curve" smooth="yes"/>
      <point x="556" y="460" type="line" smooth="yes"/>
      <point x="556" y="544"/>
      <point x="528" y="592"/>
      <point x="468" y="592" type="curve" smooth="yes"/>
      <point x="98" y="592" type="line" smooth="yes"/>
      <point x="69" y="592"/>
      <point x="63" y="612"/>
      <point x="63" y="644" type="curve" smooth="yes"/>
      <point x="63" y="647" type="line"/>
      <point x="46" y="647" type="line"/>
      <point x="39" y="616"/>
      <point x="33" y="588"/>
      <point x="33" y="562" type="curve" smooth="yes"/>
      <point x="33" y="530"/>
      <point x="42" y="514"/>
      <point x="78" y="514" type="curve" smooth="yes"/>
      <point x="454" y="514" type="line" smooth="yes"/>
      <point x="498" y="514"/>
      <point x="512" y="485"/>
      <point x="512" y="418" type="curve" smooth="yes"/>
      <point x="512" y="188" type="line" smooth="yes"/>
      <point x="512" y="111"/>
      <point x="504" y="78"/>
      <point x="446" y="78" type="curve" smooth="yes"/>
      <point x="48" y="78" type="line"/>
    </contour>
  </outline>
</glyph>
<glyph name="widelamed-hb" format="2">
  <advance width="573"/>
  <unicode hex="FB25"/>
  <note>
lamedwide
</note>
  <outline>
    <contour>
      <point x="353" y="-7" type="curve" smooth="yes"/>
      <point x="368" y="-7"/>
      <point x="377" y="6"/>
      <point x="377" y="24" type="curve" smooth="yes"/>
      <point x="377" y="67" type="line" smooth="yes"/>
      <point x="377" y="94"/>
      <point x="387" y="112"/>
      <point x="400" y="130" type="curve" smooth="yes"/>
      <point x="504" y="281" type="line" smooth="yes"/>
      <point x="525" y="312"/>
      <point x="535" y="336"/>
      <point x="535" y="359" type="curve" smooth="yes"/>
      <point x="535" y="509" type="line" smooth="yes"/>
      <point x="535" y="554"/>
      <point x="517" y="592"/>
      <point x="465" y="592" type="curve" smooth="yes"/>
      <point x="88" y="592" type="line" smooth="yes"/>
      <point x="68" y="592"/>
      <point x="60" y="608"/>
      <point x="66" y="643" type="curve" smooth="yes"/>
      <point x="89" y="777" type="line" smooth="yes"/>
      <point x="95" y="813"/>
      <point x="93" y="825"/>
      <point x="73" y="832" type="curve" smooth="yes"/>
      <point x="52" y="839" type="line" smooth="yes"/>
      <point x="39" y="843"/>
      <point x="33" y="848"/>
      <point x="33" y="868" type="curve" smooth="yes"/>
      <point x="33" y="873" type="line"/>
      <point x="21" y="873" type="line"/>
      <point x="16" y="861"/>
      <point x="7" y="844"/>
      <point x="7" y="824" type="curve" smooth="yes"/>
      <point x="7" y="804"/>
      <point x="16" y="789"/>
      <point x="33" y="784" type="curve" smooth="yes"/>
      <point x="46" y="780" type="line" smooth="yes"/>
      <point x="56" y="777"/>
      <point x="53" y="768"/>
      <point x="51" y="758" type="curve" smooth="yes"/>
      <point x="42" y="713"/>
      <point x="19" y="596"/>
      <point x="19" y="560" type="curve" smooth="yes"/>
      <point x="19" y="522"/>
      <point x="45" y="514"/>
      <point x="76" y="514" type="curve" smooth="yes"/>
      <point x="465" y="514" type="line" smooth="yes"/>
      <point x="483" y="514"/>
      <point x="492" y="508"/>
      <point x="492" y="478" type="curve" smooth="yes"/>
      <point x="492" y="358" type="line" smooth="yes"/>
      <point x="492" y="342"/>
      <point x="488" y="332"/>
      <point x="475" y="313" type="curve" smooth="yes"/>
      <point x="361" y="150" type="line" smooth="yes"/>
      <point x="341" y="121"/>
      <point x="326" y="97"/>
      <point x="326" y="65" type="curve" smooth="yes"/>
      <point x="326" y="24" type="line" smooth="yes"/>
      <point x="326" y="5"/>
      <point x="339" y="-7"/>
    </contour>
  </outline>
</glyph>
<glyph name="finalwidemem-hb" format="2">
  <advance width="609"/>
  <unicode hex="FB26"/>
  <note>
finalmemwide
</note>
  <outline>
    <contour>
      <point x="82" y="0" type="curve" smooth="yes"/>
      <point x="463" y="0" type="line" smooth="yes"/>
      <point x="530" y="0"/>
      <point x="557" y="30"/>
      <point x="557" y="142" type="curve" smooth="yes"/>
      <point x="557" y="468" type="line" smooth="yes"/>
      <point x="557" y="552"/>
      <point x="520" y="592"/>
      <point x="469" y="592" type="curve" smooth="yes"/>
      <point x="100" y="592" type="line" smooth="yes"/>
      <point x="69" y="592"/>
      <point x="64" y="612"/>
      <point x="64" y="644" type="curve" smooth="yes"/>
      <point x="64" y="647" type="line"/>
      <point x="47" y="647" type="line"/>
      <point x="42" y="624"/>
      <point x="34" y="590"/>
      <point x="34" y="562" type="curve" smooth="yes"/>
      <point x="34" y="530"/>
      <point x="44" y="514"/>
      <point x="80" y="514" type="curve"/>
      <point x="468" y="514" type="line" smooth="yes"/>
      <point x="504" y="514"/>
      <point x="513" y="493"/>
      <point x="513" y="426" type="curve" smooth="yes"/>
      <point x="513" y="171" type="line" smooth="yes"/>
      <point x="513" y="104"/>
      <point x="499" y="78"/>
      <point x="436" y="78" type="curve" smooth="yes"/>
      <point x="86" y="78" type="line"/>
      <point x="86" y="363" type="line" smooth="yes"/>
      <point x="86" y="423"/>
      <point x="96" y="487"/>
      <point x="127" y="514" type="curve"/>
      <point x="127" y="528" type="line"/>
      <point x="82" y="528" type="line"/>
      <point x="82" y="512" type="line"/>
      <point x="54" y="467"/>
      <point x="42" y="418"/>
      <point x="42" y="363" type="curve" smooth="yes"/>
      <point x="42" y="54" type="line" smooth="yes"/>
      <point x="42" y="10"/>
      <point x="52" y="0"/>
    </contour>
  </outline>
</glyph>
<glyph name="wideresh-hb" format="2">
  <advance width="559"/>
  <unicode hex="FB27"/>
  <note>
reshwide
</note>
  <outline>
    <contour>
      <point x="464" y="-7" type="line"/>
      <point x="473" y="-7" type="line"/>
      <point x="492" y="3"/>
      <point x="505" y="11"/>
      <point x="514" y="29" type="curve"/>
      <point x="505" y="486" type="line" smooth="yes"/>
      <point x="504" y="562"/>
      <point x="489" y="592"/>
      <point x="428" y="592" type="curve" smooth="yes"/>
      <point x="73" y="592" type="line" smooth="yes"/>
      <point x="40" y="592"/>
      <point x="37" y="612"/>
      <point x="37" y="644" type="curve" smooth="yes"/>
      <point x="37" y="647" type="line"/>
      <point x="20" y="647" type="line"/>
      <point x="15" y="624"/>
      <point x="7" y="590"/>
      <point x="7" y="561" type="curve" smooth="yes"/>
      <point x="7" y="530"/>
      <point x="16" y="514"/>
      <point x="52" y="514" type="curve" smooth="yes"/>
      <point x="424" y="514" type="line" smooth="yes"/>
      <point x="463" y="514"/>
      <point x="464" y="488"/>
      <point x="464" y="448" type="curve" smooth="yes"/>
    </contour>
  </outline>
</glyph>
<glyph name="widetav-hb" format="2">
  <advance width="635"/>
  <unicode hex="FB28"/>
  <note>
tavwide
</note>
  <outline>
    <contour>
      <point x="540" y="-7" type="line"/>
      <point x="550" y="-7" type="line"/>
      <point x="569" y="3"/>
      <point x="581" y="14"/>
      <point x="590" y="29" type="curve"/>
      <point x="581" y="486" type="line" smooth="yes"/>
      <point x="580" y="562"/>
      <point x="565" y="592"/>
      <point x="504" y="592" type="curve" smooth="yes"/>
      <point x="105" y="592" type="line" smooth="yes"/>
      <point x="72" y="592"/>
      <point x="69" y="612"/>
      <point x="69" y="644" type="curve" smooth="yes"/>
      <point x="69" y="647" type="line"/>
      <point x="52" y="647" type="line"/>
      <point x="46" y="624"/>
      <point x="39" y="590"/>
      <point x="39" y="562" type="curve" smooth="yes"/>
      <point x="39" y="530"/>
      <point x="48" y="514"/>
      <point x="83" y="514" type="curve" smooth="yes"/>
      <point x="500" y="514" type="line" smooth="yes"/>
      <point x="539" y="514"/>
      <point x="540" y="488"/>
      <point x="540" y="448" type="curve" smooth="yes"/>
    </contour>
    <contour>
      <point x="15" y="0" type="line"/>
      <point x="127" y="0" type="line"/>
      <point x="133" y="18"/>
      <point x="137" y="31"/>
      <point x="137" y="56" type="curve" smooth="yes"/>
      <point x="137" y="112"/>
      <point x="117" y="244"/>
      <point x="117" y="317" type="curve" smooth="yes"/>
      <point x="117" y="380"/>
      <point x="132" y="493"/>
      <point x="135" y="514" type="curve"/>
      <point x="135" y="539" type="line"/>
      <point x="102" y="539" type="line"/>
      <point x="102" y="512" type="line"/>
      <point x="86" y="424"/>
      <point x="70" y="352"/>
      <point x="73" y="281" type="curve" smooth="yes"/>
      <point x="81" y="111" type="line" smooth="yes"/>
      <point x="82" y="91"/>
      <point x="83" y="78"/>
      <point x="75" y="78" type="curve" smooth="yes"/>
      <point x="24" y="78" type="line"/>
    </contour>
  </outline>
</glyph>
<glyph name="alternativeplus-hb" format="2">
  <advance width="425"/>
  <unicode hex="FB29"/>
  <note>
alt_plussign
</note>
  <outline>
    <contour>
      <point x="46" y="332" type="line"/>
      <point x="378" y="332" type="line"/>
      <point x="378" y="383" type="line"/>
      <point x="237" y="383" type="line"/>
      <point x="237" y="572" type="line"/>
      <point x="185" y="572" type="line"/>
      <point x="185" y="383" type="line"/>
      <point x="46" y="383" type="line"/>
    </contour>
  </outline>
</glyph>
<glyph name="aleflamed-hb" format="2">
  <advance width="413"/>
  <unicode hex="FB4F"/>
  <note>
aleflamed
</note>
  <anchor x="161" y="0" name="caret_1"/>
  <outline>
    <contour>
      <point x="344" y="-10" type="curve"/>
      <point x="357" y="-10" type="line"/>
      <point x="365" y="4"/>
      <point x="369" y="24"/>
      <point x="369" y="42" type="curve" smooth="yes"/>
      <point x="369" y="71"/>
      <point x="364" y="80"/>
      <point x="331" y="137" type="curve" smooth="yes"/>
      <point x="84" y="573" type="line" smooth="yes"/>
      <point x="74" y="591"/>
      <point x="63" y="616"/>
      <point x="68" y="643" type="curve" smooth="yes"/>
      <point x="88" y="760" type="line" smooth="yes"/>
      <point x="97" y="812"/>
      <point x="99" y="825"/>
      <point x="79" y="831" type="curve" smooth="yes"/>
      <point x="54" y="838" type="line" smooth="yes"/>
      <point x="41" y="842"/>
      <point x="33" y="847"/>
      <point x="33" y="867" type="curve" smooth="yes"/>
      <point x="33" y="873" type="line"/>
      <point x="21" y="873" type="line"/>
      <point x="16" y="862"/>
      <point x="7" y="842"/>
      <point x="7" y="823" type="curve" smooth="yes"/>
      <point x="7" y="801"/>
      <point x="18" y="789"/>
      <point x="33" y="784" type="curve" smooth="yes"/>
      <point x="45" y="780" type="line" smooth="yes"/>
      <point x="53" y="777"/>
      <point x="54" y="775"/>
      <point x="51" y="758" type="curve" smooth="yes"/>
      <point x="44" y="719"/>
      <point x="22" y="613"/>
      <point x="22" y="583" type="curve" smooth="yes"/>
      <point x="22" y="561"/>
      <point x="33" y="537"/>
      <point x="52" y="504" type="curve" smooth="yes"/>
      <point x="316" y="53" type="line" smooth="yes"/>
      <point x="335" y="21"/>
      <point x="343" y="7"/>
    </contour>
    <contour>
      <point x="283" y="212" type="line"/>
      <point x="283" y="268"/>
      <point x="291" y="330"/>
      <point x="309" y="384" type="curve" smooth="yes"/>
      <point x="363" y="549" type="line"/>
      <point x="326" y="549" type="line"/>
      <point x="274" y="408" type="line" smooth="yes"/>
      <point x="257" y="361"/>
      <point x="239" y="304"/>
      <point x="239" y="283" type="curve"/>
    </contour>
    <contour>
      <point x="380" y="509" type="line"/>
      <point x="384" y="525"/>
      <point x="387" y="538"/>
      <point x="387" y="551" type="curve" smooth="yes"/>
      <point x="387" y="582"/>
      <point x="368" y="588"/>
      <point x="355" y="591" type="curve" smooth="yes"/>
      <point x="329" y="597" type="line" smooth="yes"/>
      <point x="310" y="601"/>
      <point x="305" y="618"/>
      <point x="305" y="643" type="curve" smooth="yes"/>
      <point x="305" y="647" type="line"/>
      <point x="288" y="647" type="line"/>
      <point x="278" y="617"/>
      <point x="274" y="589"/>
      <point x="274" y="568" type="curve" smooth="yes"/>
      <point x="274" y="547"/>
      <point x="278" y="533"/>
      <point x="308" y="526" type="curve" smooth="yes"/>
    </contour>
  </outline>
</glyph>
<glyph name="hatafqamats_zerowidthjoiner_siluqleft-hb" format="2">
  <anchor x="226" y="0" name="_bottom"/>
  <outline>
    <contour>
      <point x="131" y="-232" type="line"/>
      <point x="172" y="-232" type="line"/>
      <point x="167" y="-129" type="line"/>
      <point x="210" y="-129" type="line"/>
      <point x="212" y="-84" type="line"/>
      <point x="92" y="-84" type="line"/>
      <point x="89" y="-129" type="line"/>
      <point x="136" y="-129" type="line"/>
    </contour>
    <contour>
      <point x="238" y="-246" type="line"/>
      <point x="279" y="-244" type="line"/>
      <point x="279" y="-70" type="line"/>
      <point x="238" y="-73" type="line"/>
    </contour>
    <contour>
      <point x="335" y="-246" type="curve" smooth="yes"/>
      <point x="351" y="-246"/>
      <point x="364" y="-234"/>
      <point x="364" y="-209" type="curve" smooth="yes"/>
      <point x="364" y="-185"/>
      <point x="351" y="-173"/>
      <point x="335" y="-173" type="curve" smooth="yes"/>
      <point x="317" y="-173"/>
      <point x="305" y="-185"/>
      <point x="305" y="-209" type="curve" smooth="yes"/>
      <point x="305" y="-235"/>
      <point x="317" y="-246"/>
    </contour>
    <contour>
      <point x="333" y="-143" type="curve" smooth="yes"/>
      <point x="351" y="-143"/>
      <point x="363" y="-131"/>
      <point x="363" y="-106" type="curve" smooth="yes"/>
      <point x="363" y="-82"/>
      <point x="351" y="-70"/>
      <point x="333" y="-70" type="curve" smooth="yes"/>
      <point x="316" y="-70"/>
      <point x="305" y="-82"/>
      <point x="305" y="-106" type="curve" smooth="yes"/>
      <point x="305" y="-132"/>
      <point x="316" y="-143"/>
    </contour>
  </outline>
</glyph>
<glyph name="hatafsegol_zerowidthjoiner_siluqleft-hb" format="2">
  <anchor x="232" y="0" name="_bottom"/>
  <outline>
    <contour>
      <point x="264" y="-246" type="line"/>
      <point x="305" y="-244" type="line"/>
      <point x="305" y="-70" type="line"/>
      <point x="264" y="-73" type="line"/>
    </contour>
    <contour>
      <point x="156" y="-246" type="curve" smooth="yes"/>
      <point x="173" y="-246"/>
      <point x="185" y="-234"/>
      <point x="185" y="-209" type="curve" smooth="yes"/>
      <point x="185" y="-185"/>
      <point x="173" y="-173"/>
      <point x="156" y="-173" type="curve" smooth="yes"/>
      <point x="139" y="-173"/>
      <point x="127" y="-185"/>
      <point x="127" y="-209" type="curve"/>
      <point x="127" y="-235"/>
      <point x="139" y="-246"/>
    </contour>
    <contour>
      <point x="104" y="-143" type="curve" smooth="yes"/>
      <point x="121" y="-143"/>
      <point x="133" y="-131"/>
      <point x="133" y="-106" type="curve" smooth="yes"/>
      <point x="133" y="-82"/>
      <point x="121" y="-70"/>
      <point x="104" y="-70" type="curve" smooth="yes"/>
      <point x="86" y="-70"/>
      <point x="75" y="-82"/>
      <point x="75" y="-106" type="curve"/>
      <point x="75" y="-132"/>
      <point x="86" y="-143"/>
    </contour>
    <contour>
      <point x="208" y="-143" type="curve" smooth="yes"/>
      <point x="226" y="-143"/>
      <point x="238" y="-131"/>
      <point x="238" y="-106" type="curve" smooth="yes"/>
      <point x="238" y="-82"/>
      <point x="226" y="-70"/>
      <point x="208" y="-70" type="curve" smooth="yes"/>
      <point x="192" y="-70"/>
      <point x="180" y="-82"/>
      <point x="180" y="-106" type="curve"/>
      <point x="180" y="-132"/>
      <point x="192" y="-143"/>
    </contour>
    <contour>
      <point x="359" y="-246" type="curve" smooth="yes"/>
      <point x="377" y="-246"/>
      <point x="389" y="-234"/>
      <point x="389" y="-209" type="curve" smooth="yes"/>
      <point x="389" y="-185"/>
      <point x="377" y="-173"/>
      <point x="359" y="-173" type="curve" smooth="yes"/>
      <point x="343" y="-173"/>
      <point x="330" y="-185"/>
      <point x="330" y="-209" type="curve"/>
      <point x="330" y="-235"/>
      <point x="343" y="-246"/>
    </contour>
    <contour>
      <point x="359" y="-143" type="curve" smooth="yes"/>
      <point x="376" y="-143"/>
      <point x="388" y="-131"/>
      <point x="388" y="-106" type="curve" smooth="yes"/>
      <point x="388" y="-82"/>
      <point x="376" y="-70"/>
      <point x="359" y="-70" type="curve" smooth="yes"/>
      <point x="342" y="-70"/>
      <point x="330" y="-82"/>
      <point x="330" y="-106" type="curve"/>
      <point x="330" y="-132"/>
      <point x="342" y="-143"/>
    </contour>
  </outline>
</glyph>
